<?xml version="1.0" encoding="UTF-8"?>
<!DOCTYPE svg PUBLIC "-//W3C//DTD SVG 1.1//EN" "http://www.w3.org/Graphics/SVG/1.1/DTD/svg11.dtd">
<!-- Creator: CorelDRAW 2018 (64 Bit) -->
<svg xmlns="http://www.w3.org/2000/svg" xml:space="preserve" width="6.7732mm" height="4.6566mm" version="1.1" style="shape-rendering:geometricPrecision; text-rendering:geometricPrecision; image-rendering:optimizeQuality; fill-rule:evenodd; clip-rule:evenodd"
viewBox="0 0 677.32 465.66"
 xmlns:xlink="http://www.w3.org/1999/xlink">
 <defs>
  <style type="text/css">
   <![CDATA[
    .fil0 {fill:white}
   ]]>
  </style>
 </defs>
 <g id="Capa_x0020_1">
  <metadata id="CorelCorpID_0Corel-Layer"/>
  <path class="fil0" d="M-0 19.69l0 426.28c0,14.97 14.51,21.16 27.77,21.16l621.78 0c13.19,0 27.77,-6.07 27.77,-21.16l0 -426.28c0,-6.64 -4.58,-13.08 -8.42,-16.07 -4.64,-3.61 -12,-5.1 -19.35,-5.1l-621.78 0c-13.19,0 -27.77,6.08 -27.77,21.17zm522.58 123.32c0,4.92 1.05,8.87 3.17,11.87 2.12,3.02 4.83,4.52 8.1,4.52 3.31,0 5.99,-1.5 8.12,-4.54 2.11,-3.04 3.16,-6.97 3.16,-11.85 0,-4.82 -1.05,-8.75 -3.16,-11.82 -2.13,-3.04 -4.81,-4.56 -8.12,-4.56 -3.27,0 -5.98,1.51 -8.1,4.55 -2.12,3.03 -3.17,6.96 -3.17,11.83zm-20.45 -0.04c0,-9.15 2.99,-16.71 8.98,-22.66 6.01,-5.92 13.57,-8.89 22.74,-8.89 9.22,0 16.83,2.97 22.84,8.89 6.01,5.95 9.02,13.51 9.02,22.66 0,9.18 -3.01,16.76 -9.02,22.7 -6.01,5.97 -13.62,8.94 -22.84,8.94 -9.13,0 -16.68,-2.97 -22.7,-8.94 -6,-5.94 -9.02,-13.52 -9.02,-22.7zm-34.22 32.55l-28.94 -61.35 22.16 0 9.54 22.02 9.98 -22.02 18.49 0 -29.37 61.35 -1.86 0zm-56.49 -82.84c0,-3.08 1.07,-5.68 3.21,-7.81 2.12,-2.13 4.72,-3.21 7.8,-3.21 3.12,0 5.72,1.05 7.85,3.18 2.12,2.11 3.16,4.71 3.16,7.84 0,3.07 -1.07,5.7 -3.21,7.88 -2.12,2.17 -4.72,3.26 -7.8,3.26 -2.99,0 -5.57,-1.09 -7.76,-3.3 -2.16,-2.21 -3.25,-4.81 -3.25,-7.84zm21.23 79.17l-20.31 0 0 -57.68 20.31 -2.75 0 60.43zm-62.92 -19.35l0 -23.12 -8.39 0 0 -15.21 8.39 0 0 -17.3 20.45 -2.75 0 20.05 13.64 0 0 15.21 -13.64 0 0 24.5c0,5.19 0.7,8.97 2.12,11.29 1.42,2.31 4.08,4.48 7.98,6.42l-22.81 1.57c-2.87,-1.37 -4.85,-3.4 -6.01,-6.11 -1.16,-2.71 -1.73,-7.57 -1.73,-14.55zm-16.91 16.08c-3.53,2.01 -7.04,3.49 -10.47,4.46 -3.43,0.95 -6.97,1.44 -10.59,1.44 -9.62,0 -17.5,-2.89 -23.66,-8.66 -6.18,-5.75 -9.26,-13.04 -9.26,-21.89 0,-9.16 3.31,-16.86 9.96,-23.07 6.63,-6.2 14.96,-9.3 24.99,-9.3 3.67,0 7.28,0.41 10.77,1.24 3.5,0.83 6.89,2.07 10.12,3.76l-2.25 17.93c-3.14,-1.92 -6.18,-3.39 -9.11,-4.39 -2.93,-1.01 -5.64,-1.51 -8.15,-1.51 -4.52,0 -8.28,1.38 -11.28,4.13 -2.99,2.76 -4.48,6.16 -4.48,10.25 0,4.37 1.38,7.87 4.15,10.51 2.78,2.65 6.43,3.95 10.95,3.95 2.82,0 5.83,-0.61 9.02,-1.81 3.22,-1.23 6.93,-3.19 11.15,-5.92l-1.86 18.88zm-102.84 -30.94l24.99 -0.77 0 -0.89c0,-3.04 -1.07,-5.53 -3.18,-7.48 -2.15,-1.94 -4.83,-2.92 -8.06,-2.92 -3.61,0 -6.65,1.05 -9.07,3.16 -2.43,2.13 -3.98,5.1 -4.68,8.9zm38.23 13.64l-2.22 17.71c-3.94,1.86 -7.8,3.26 -11.61,4.16 -3.79,0.89 -7.62,1.33 -11.51,1.33 -9.61,0 -17.35,-2.76 -23.25,-8.29 -5.88,-5.53 -8.82,-12.73 -8.82,-21.61 0,-9.26 3.21,-17.08 9.65,-23.46 6.45,-6.37 14.29,-9.56 23.51,-9.56 7.89,0 14.35,2.33 19.43,7.01 5.05,4.67 7.57,10.72 7.57,18.15 0,1.14 -0.08,2.97 -0.25,5.51l-0.07 0.37 -1.79 2.6 -39.31 1.09c0.31,3.89 1.93,7.06 4.85,9.48 2.95,2.43 6.67,3.63 11.12,3.63 3.17,0 6.67,-0.67 10.54,-2.05 3.84,-1.36 7.9,-3.39 12.16,-6.07zm-62.4 -37.11l0 15.21 -13.76 0 0 42.47 -20.44 0 0 -42.47 -8.4 0 0 -15.21 8.4 0 0 -5.11c0,-7.19 1.1,-13.33 3.31,-18.46 2.23,-5.11 5.23,-8.48 9.02,-10.12l22.79 -2.75 0 6.29c-4.96,1.25 -8.64,3.61 -11.05,7.08 -2.43,3.47 -3.63,8.2 -3.63,14.19l0 8.88 13.76 0zm-109.3 57.68l0 -92.81 57.16 0 0 19.14 -35.66 0 0 16.78 30.54 0 0 19.01 -30.54 0 0 18.35 36.18 0 0 19.53 -57.68 0zm78.17 132.13l0 57.56c-7.95,3.99 -15.7,6.97 -23.22,8.98 -7.56,2.03 -14.86,3.03 -21.93,3.03 -10.68,0 -20.27,-2.07 -28.8,-6.24l-7.66 20.63 -14.62 -9.04 7.98 -21.47c-0.61,-0.56 -1.2,-1.12 -1.79,-1.71 -11.91,-11.9 -17.84,-26.93 -17.84,-45.05 0,-18.32 6.02,-33.45 18.1,-45.4 11.33,-11.25 25.46,-17.23 42.44,-17.92l10.39 -27.99 14.62 9.04 -7.53 20.29c1.96,0.4 3.89,0.89 5.8,1.46 6.3,1.91 12.37,4.8 18.19,8.65l-3.02 29.63c-5.5,-5.54 -10.97,-9.61 -16.39,-12.18 -4.33,-2.05 -8.8,-3.28 -13.46,-3.71l-25.59 68.89c5.88,4.24 12.93,6.37 21.12,6.37 2.46,0 4.93,-0.22 7.44,-0.64 2.51,-0.44 5.1,-1.06 7.84,-1.89l0 -17.2 -22.41 0 0 -24.09 50.34 0zm-57.75 -28.64c-4.1,1.77 -7.78,4.33 -11.08,7.69 -6.96,7.1 -10.45,15.99 -10.45,26.64 0,5.92 0.95,11.27 2.82,16.04l18.71 -50.37zm136.21 -34.25l301.24 0c8.88,0 16.14,7.26 16.14,16.14l0 2.69c0,8.88 -7.26,16.14 -16.14,16.14l-301.24 0c-8.88,0 -16.14,-7.26 -16.14,-16.14l0 -2.69c0,-8.88 7.26,-16.14 16.14,-16.14zm-9.24 76.21l128.75 0c3.8,0 6.9,7.26 6.9,16.14l0 2.69c0,8.87 -3.1,16.14 -6.9,16.14l-128.75 0c-3.8,0 -6.9,-7.27 -6.9,-16.14l0 -2.69c0,-8.88 3.1,-16.14 6.9,-16.14zm186.03 0l133.44 0c3.93,0 7.15,7.26 7.15,16.14l0 2.69c0,8.87 -3.22,16.14 -7.15,16.14l-133.44 0c-3.93,0 -7.15,-7.27 -7.15,-16.14l0 -2.69c0,-8.88 3.22,-16.14 7.15,-16.14z"/>
 </g>
</svg>
