<?xml version="1.0" encoding="utf-8"?>
<!-- Generator: Adobe Illustrator 24.0.2, SVG Export Plug-In . SVG Version: 6.00 Build 0)  -->
<svg version="1.1" id="Capa_1" xmlns="http://www.w3.org/2000/svg" xmlns:xlink="http://www.w3.org/1999/xlink" x="0px" y="0px"
	 viewBox="0 0 480 480" style="enable-background:new 0 0 480 480;" xml:space="preserve">
<style type="text/css">
	.st0{fill:#339911;}
</style>
<g>
	<g>
		<path class="st0" d="M341.9,0H138.1C114.8,0,96,18.8,96,42.1v395.9c0,23.2,18.8,42,42.1,42.1h203.9c23.2,0,42-18.8,42.1-42.1V42.1
			C384,18.8,365.2,0,341.9,0z M368,437.9c0,14.4-11.7,26-26.1,26.1H138.1c-14.4,0-26-11.7-26.1-26.1V416h256V437.9z M368,400H112V88
			h256V400z M368,72H112V42.1c0-14.4,11.7-26,26.1-26.1h203.9c14.4,0,26,11.7,26.1,26.1L368,72L368,72z"/>
	</g>
</g>
<g>
	<g>
		<rect x="184" y="40" class="st0" width="80" height="16"/>
	</g>
</g>
<g>
	<g>
		<rect x="224" y="432" class="st0" width="32" height="16"/>
	</g>
</g>
<g>
	<g>
		<path class="st0" d="M128,120v96h112v-96H128z M224,200h-80v-64h80V200z"/>
	</g>
</g>
<g>
	<g>
		<rect x="256" y="120" class="st0" width="96" height="16"/>
	</g>
</g>
<g>
	<g>
		<rect x="256" y="152" class="st0" width="32" height="16"/>
	</g>
</g>
<g>
	<g>
		<rect x="304" y="152" class="st0" width="48" height="16"/>
	</g>
</g>
<g>
	<g>
		<rect x="256" y="184" class="st0" width="96" height="16"/>
	</g>
</g>
<g>
	<g>
		<path class="st0" d="M128,232v96h112v-96H128z M224,312h-80v-64h80V312z"/>
	</g>
</g>
<g>
	<g>
		<rect x="256" y="232" class="st0" width="96" height="16"/>
	</g>
</g>
<g>
	<g>
		<rect x="256" y="264" class="st0" width="32" height="16"/>
	</g>
</g>
<g>
	<g>
		<rect x="304" y="264" class="st0" width="48" height="16"/>
	</g>
</g>
<g>
	<g>
		<rect x="256" y="296" class="st0" width="96" height="16"/>
	</g>
</g>
<g>
	<g>
		<rect x="176" y="368" class="st0" width="96" height="16"/>
	</g>
</g>
<g>
	<g>
		<path class="st0" d="M288,336v48h64v-48H288z M336,368h-32v-16h32V368z"/>
	</g>
</g>
<g>
	<g>
		<rect x="280" y="40" class="st0" width="16" height="16"/>
	</g>
</g>
</svg>
