<?xml version="1.0" encoding="utf-8"?>
<!-- Generator: Adobe Illustrator 24.0.2, SVG Export Plug-In . SVG Version: 6.00 Build 0)  -->
<svg version="1.1" id="Capa_1" xmlns="http://www.w3.org/2000/svg" xmlns:xlink="http://www.w3.org/1999/xlink" x="0px" y="0px"
	 viewBox="0 0 512 512" style="enable-background:new 0 0 512 512;" xml:space="preserve">
<style type="text/css">
	.st0{fill:#339911;}
</style>
<g>
	<g>
		<path class="st0" d="M422.2,253c0,14.2,11.5,25.7,25.7,25.7c4.4,0,8.5-1.1,12.1-3l6.9,6.9c1.5,1.5,3.4,2.2,5.3,2.2
			s3.8-0.7,5.3-2.2c2.9-2.9,2.9-7.7,0-10.6l-6.9-6.9c1.9-3.6,3-7.7,3-12.1c0-14.2-11.5-25.7-25.7-25.7S422.2,238.8,422.2,253
			L422.2,253z M458.6,253c0,2.8-1.1,5.3-2.9,7.2c-0.1,0.1-0.2,0.2-0.3,0.3s-0.2,0.2-0.3,0.3c-1.9,1.8-4.4,2.9-7.2,2.9
			c-5.9,0-10.7-4.8-10.7-10.7s4.8-10.7,10.7-10.7S458.6,247.1,458.6,253z"/>
		<path class="st0" d="M504.5,195H484c-4.1,0-7.5,3.4-7.5,7.5s3.4,7.5,7.5,7.5h13V302h-56.7c0,0,0,0-0.1,0h-35.3V210h35.4
			c0,0,0,0,0,0c0,0,0,0,0,0h8.6c4.1,0,7.5-3.4,7.5-7.5s-3.4-7.5-7.5-7.5h-3.1c-12.3-38.3-36.5-72.7-68.7-97.3
			C342.5,71,301,56.8,257.2,56.6c-0.9,0,0,0-2.4,0c-35.7,0.2-70.8,10-101.2,28.3c-3.6,2.1-4.7,6.7-2.6,10.3
			c2.1,3.6,6.7,4.7,10.3,2.6c14-8.4,29.1-14.9,44.7-19.3c-15,14.1-28.1,34.6-38,59.9h-54c6.2-7.4,12.9-14.4,20.2-20.8
			c3.1-2.7,3.4-7.5,0.7-10.6s-7.5-3.4-10.6-0.7c-27.2,23.9-47.2,54.5-58.1,88.7H7.5c-4.1,0-7.5,3.4-7.5,7.5v107.1
			c0,4.1,3.4,7.5,7.5,7.5h58.6c12.3,38.3,36.6,72.7,68.7,97.3c34.7,26.6,76.2,40.8,120,41.1c0.4,0,0.6,0,2.4,0
			c43.8-0.3,85.3-14.5,120-41.1c32.1-24.6,56.3-59,68.7-97.3h58.6c4.1,0,7.5-3.4,7.5-7.5V202.5C512,198.3,508.6,195,504.5,195z
			 M397.4,195h-38c-2.5-14.8-5.9-28.7-10.1-41.6h59.8c8.6,12.8,15.7,26.7,20.9,41.6L397.4,195z M167.8,195
			c2.7-14.9,6.3-28.8,10.7-41.6h70V195L167.8,195z M263.5,153.4h70c4.4,12.8,8,26.7,10.7,41.6h-80.7V153.4z M263.5,72.2
			c25.2,4.1,48.3,28.7,64.2,66.2h-64.2V72.2z M397.9,138.4H344c-9.9-25.2-22.8-45.6-37.8-59.8C342.1,88.9,374.1,109.9,397.9,138.4
			L397.9,138.4z M248.5,72.2v66.2h-64.2C200.2,101,223.3,76.3,248.5,72.2z M102.7,153.4h59.9c-4.1,12.9-7.5,26.8-10.1,41.6H81.9
			C87.1,180.2,94.1,166.3,102.7,153.4z M89.9,302H15V210h374.9V302H124.9c-4.1,0-7.5,3.4-7.5,7.5s3.4,7.5,7.5,7.5h27.7
			c2.5,14.8,5.9,28.7,10.1,41.6h-59.8c-8.6-12.8-15.7-26.7-20.9-41.6h7.9c4.1,0,7.5-3.4,7.5-7.5S94,302,89.9,302z M248.5,373.6v66.2
			c-25.2-4.1-48.3-28.7-64.2-66.2H248.5z M178.5,358.6c-4.4-12.8-8-26.7-10.7-41.6h80.7v41.6H178.5z M263.5,439.8v-66.2h64.2
			C311.8,411,288.7,435.7,263.5,439.8z M263.5,358.6V317h80.7c-2.7,14.9-6.3,28.8-10.7,41.6L263.5,358.6L263.5,358.6z M114.1,373.6
			H168c9.9,25.2,22.8,45.6,37.8,59.8C169.9,423.1,137.9,402.1,114.1,373.6L114.1,373.6z M306.2,433.4c15-14.1,27.9-34.5,37.8-59.8
			h53.9C374.1,402.1,342.1,423.1,306.2,433.4z M409.2,358.6h-59.8c4.1-12.9,7.5-26.8,10.1-41.6h38h32.7
			C424.9,331.9,417.8,345.8,409.2,358.6z"/>
	</g>
</g>
</svg>
