<?xml version="1.0" encoding="utf-8"?>
<!-- Generator: Adobe Illustrator 24.0.2, SVG Export Plug-In . SVG Version: 6.00 Build 0)  -->
<svg version="1.1" id="Capa_1" xmlns="http://www.w3.org/2000/svg" xmlns:xlink="http://www.w3.org/1999/xlink" x="0px" y="0px"
	 viewBox="0 0 70.7 55" style="enable-background:new 0 0 70.7 55;" xml:space="preserve">
<style type="text/css">
	.st0{fill:#FFFFFF;}
</style>
<path id="cc-mastercard" class="st0" d="M59.3,46.3c0,0.8-0.7,1.3-1.4,1.3c-0.8,0-1.3-0.7-1.3-1.4s0.6-1.3,1.4-1.3
	C58.7,44.9,59.3,45.5,59.3,46.3L59.3,46.3z M21.1,44.9c-0.8-0.1-1.5,0.5-1.5,1.3c-0.1,0.8,0.5,1.5,1.3,1.5c0.8,0.1,1.5-0.5,1.5-1.3
	v-0.1C22.5,45.6,21.9,44.9,21.1,44.9C21.2,44.9,21.1,44.9,21.1,44.9z M35.6,44.8c-0.6,0-1.1,0.5-1.2,1.1h2.3
	C36.7,45.3,36.2,44.8,35.6,44.8L35.6,44.8z M48.8,44.9c-0.8,0-1.5,0.6-1.5,1.4c0,0.8,0.6,1.5,1.4,1.5c0.8,0,1.5-0.6,1.5-1.4
	c0,0,0,0,0-0.1C50.2,45.6,49.6,44.9,48.8,44.9C48.9,44.9,48.8,44.9,48.8,44.9L48.8,44.9z M61.8,48.1L61.8,48.1v0.2
	c0,0,0,0.1-0.1,0.1l-0.1,0.1h-0.1h-0.1c0,0-0.1,0-0.1-0.1s-0.1-0.1-0.1-0.1v-0.1c0-0.1,0-0.1,0-0.1c0-0.1,0-0.1,0.1-0.1
	c0,0,0.1,0,0.1-0.1h0.1c0.1,0,0.1,0,0.1,0C61.7,47.9,61.7,47.9,61.8,48.1C61.7,48.1,61.8,48,61.8,48.1L61.8,48.1z M61.5,48.3
	C61.6,48.3,61.6,48.2,61.5,48.3c0.2-0.1,0.2-0.2,0.1-0.2h-0.1h-0.2v0.4h0.1v-0.2H61.5v0.2h0.1L61.5,48.3L61.5,48.3z M70.7,5.9v43.2
	c0,3.3-2.6,5.9-5.9,5.9l0,0H5.9C2.6,55,0,52.4,0,49.1V5.9C0,2.6,2.6,0,5.9,0h58.9C68.1,0,70.7,2.6,70.7,5.9L70.7,5.9z M7.9,23
	c0,9.4,7.6,17,17,17c3.3,0,6.6-1,9.4-2.8c-7.8-6.4-8.9-18-2.5-25.8c0.8-0.9,1.6-1.8,2.5-2.5c-7.8-5.2-18.4-3.1-23.6,4.8
	C8.8,16.4,7.9,19.7,7.9,23L7.9,23z M35.4,36.4c7.4-5.8,8.6-16.5,2.8-23.9c-0.8-1-1.8-2-2.8-2.8c-7.4,5.8-8.6,16.5-2.8,23.9
	C33.4,34.6,34.3,35.6,35.4,36.4z M17.9,45.8c0-0.9-0.7-1.8-1.6-1.8c-0.1,0-0.1,0-0.2,0c-0.6,0-1.2,0.3-1.6,0.8
	C14.2,44.3,13.6,44,13,44c-0.5,0-1,0.2-1.3,0.7v-0.5h-1v4.5h1c0-2.3-0.3-3.7,1.1-3.7c1.3,0,1,1.3,1,3.7h1c0-2.2-0.3-3.7,1.1-3.7
	c1.3,0,1,1.2,1,3.7h1L17.9,45.8L17.9,45.8z M23.4,44.1h-1v0.5c-0.3-0.4-0.9-0.7-1.4-0.7c-1.3,0.1-2.3,1.2-2.2,2.5
	c0.1,1.2,1,2.2,2.2,2.2c0.6,0,1.1-0.2,1.4-0.7v0.6h1V44.1z M28.4,47.2c0-1.8-2.8-1-2.8-1.9c0-0.7,1.5-0.6,2.3-0.1l0.4-0.8
	c-1.2-0.7-3.7-0.7-3.7,1s2.8,1,2.8,1.8s-1.7,0.7-2.5,0.1l-0.4,0.8C25.7,49.1,28.4,48.9,28.4,47.2z M32.7,48.4l-0.3-0.8
	c-0.5,0.3-1.5,0.5-1.5-0.5v-2h1.6v-0.9H31v-1.4h-1v1.4h-1V45h0.9v2C29.9,49.2,32.1,48.8,32.7,48.4L32.7,48.4z M34.4,46.7h3.4
	c0-2-0.9-2.8-2.1-2.8c-1.2,0-2.2,1-2.2,2.2c0,0.1,0,0.1,0,0.2c0,2.5,2.8,2.9,4.2,1.7L37,47.3C36.1,48.1,34.6,48,34.4,46.7L34.4,46.7
	z M41.6,44.1c-0.7-0.3-1.5-0.1-1.9,0.5v-0.5h-1v4.5h1V46c-0.1-0.6,0.3-1.1,0.8-1.2c0.3,0,0.5,0,0.7,0.2L41.6,44.1z M42.9,46.3
	c0-1.4,1.4-1.9,2.5-1l0.5-0.8c-1-0.9-2.6-0.8-3.4,0.3c-0.9,1-0.8,2.6,0.3,3.4c0.9,0.8,2.3,0.8,3.2,0l-0.5-0.8
	C44.3,48.2,42.9,47.7,42.9,46.3L42.9,46.3z M51.1,44.1h-1v0.5c-1-1.3-3.7-0.6-3.7,1.7c0,2.4,2.8,3,3.7,1.7v0.6h1V44.1z M55.2,44.1
	c-0.7-0.3-1.5-0.1-1.9,0.5v-0.5h-1v4.5h1V46c-0.1-0.6,0.3-1.1,0.9-1.2c0.2,0,0.5,0,0.7,0.1L55.2,44.1L55.2,44.1z M60.2,42.2h-1v2.4
	c-1-1.3-3.7-0.6-3.7,1.7c0,2.4,2.8,3,3.7,1.7v0.6h1V42.2L60.2,42.2z M61.1,33v0.6h0.1L61.1,33h0.3v-0.1h-0.6V33H61.1L61.1,33z
	 M61.9,48.2c0-0.1,0-0.1,0-0.2l-0.1-0.1l-0.1-0.1c-0.1,0-0.1,0-0.2,0c-0.1,0-0.1,0-0.2,0l-0.1,0.1c-0.1,0-0.1,0.1-0.1,0.1
	c0,0.1,0,0.1,0,0.2c0,0.1,0,0.1,0,0.2c0,0.1,0,0.1,0.1,0.1l0.1,0.1c0.1,0,0.1,0,0.2,0c0.1,0,0.1,0,0.2,0l0.1-0.1l0.1-0.1
	C61.9,48.3,61.9,48.3,61.9,48.2L61.9,48.2z M62.3,32.9h-0.2l-0.2,0.4l-0.2-0.4h-0.2v0.7h0.1v-0.5l0.2,0.4H62l0.2-0.4v0.5h0.1V32.9z
	 M62.9,23c0-9.4-7.6-17-17-17c-3.3,0-6.6,1-9.4,2.8c7.8,6.4,8.9,18,2.5,25.8c-0.8,0.9-1.6,1.8-2.5,2.5c7.8,5.2,18.4,3.1,23.6-4.8
	C61.9,29.6,62.9,26.4,62.9,23L62.9,23z"/>
</svg>
