<?xml version="1.0" encoding="utf-8"?>
<!-- Generator: Adobe Illustrator 24.0.2, SVG Export Plug-In . SVG Version: 6.00 Build 0)  -->
<svg version="1.1" id="Capa_1" xmlns="http://www.w3.org/2000/svg" xmlns:xlink="http://www.w3.org/1999/xlink" x="0px" y="0px"
	 viewBox="0 0 80 55" style="enable-background:new 0 0 80 55;" xml:space="preserve">
<style type="text/css">
	.st0{fill:#FFFFFF;}
	.st1{font-family:'MyriadPro-Regular';}
	.st2{font-size:10.2693px;}
</style>
<g>
	<g>
		<path class="st0" d="M46.7,17.4c-1.5,2-2.9,3.9-4.2,5.8c-0.5,0.6-0.9,1.3-1.2,2c-0.2,0.3-0.3,0.4-0.7,0.4c-5.7,0-11.4,0-17.1,0
			c-3.3,0-6.5,0-9.8,0c-0.9,0-1,0.1-1,1c0,7,0,14,0,21c0,2.6,0.8,3.3,3.4,3.3c12.8,0,25.6,0,38.5,0c3.3,0,6.6,0,9.8,0
			c2.5,0,3.3-0.7,3.3-3.3c0-7,0-13.9,0-20.9c0-0.2,0-0.4,0-0.6c0-0.5-0.2-0.7-0.7-0.7c-1.7,0-3.4,0-5.2,0c0.1-0.2,0.2-0.4,0.4-0.6
			c1.7-2.3,3.3-4.5,5-6.8c0.3-0.4,0.6-0.5,1-0.2c2.1,1.2,3.4,3,3.4,5.6c-0.1,8.2-0.1,16.4-0.1,24.6c0,2.2-0.6,4.1-2.4,5.5
			c-1.1,0.9-2.3,1.3-3.7,1.3c-13.6,0-27.1,0-40.7,0c-3.4,0-6.8,0-10.2,0c-3.2,0-5.8-2.7-5.8-5.9c0-8.2,0-16.5,0-24.7
			c0-3.6,1.9-6.1,5.2-6.7c1.3-0.2,2.7-0.1,4-0.1c9.3,0,18.7,0,28,0C46.1,17.4,46.3,17.4,46.7,17.4z"/>
		<path class="st0" d="M60.3,5.6c2.4,1.8,4.8,3.6,7.3,5.4c-1.1,1.5-2.2,3-3.3,4.4c-3.7,5-7.4,10.1-11.1,15.2
			c-0.9,1.3-2.2,2.2-3.5,3.1c-1.9,1.3-3.8,2.7-5.7,4c-0.3,0.2-0.6,0.3-0.9,0.4c-0.7,0.2-1.2-0.2-1.3-0.9c0-0.3,0-0.7,0.1-1
			c0.9-2.9,1.8-5.9,2.8-8.8c0.1-0.5,0.4-0.9,0.7-1.3c4.9-6.7,9.7-13.4,14.6-20.1C60.1,5.8,60.1,5.7,60.3,5.6z M46.9,27.5
			c-0.4,1.3-0.8,2.5-1.1,3.7c-0.2,0.6,0.4,1.5,1,1.6c0.1,0,0.2,0,0.3-0.1c1.2-0.8,2.3-1.7,3.5-2.5C49.3,29.3,48.1,28.4,46.9,27.5z"
			/>
		<path class="st0" d="M46.2,42.6c0,1.3,0,2.5,0,3.7c-9.4,0-18.7,0-28.1,0c0-1.3,0-2.5,0-3.7C27.4,42.6,36.8,42.6,46.2,42.6z"/>
		<path class="st0" d="M37.8,35c0,1.2,0,2.4,0,3.7c-0.4,0-0.8,0-1.1,0c-6,0-12,0-18,0c-0.5,0-0.6-0.1-0.6-0.6c0-0.9,0-1.7,0-2.6
			c0-0.4,0.1-0.6,0.5-0.6c3.6,0,7.2,0,10.8,0c2.5,0,5.1,0,7.6,0C37.3,35,37.6,35,37.8,35z"/>
		<path class="st0" d="M59.1,30.3c0.4,0,0.8,0,1.3,0c0,0.4,0,0.8,0,1.2c0,0.4,0.1,0.6,0.5,0.7c1.8,0.4,2.8,1.7,2.8,3.3
			c0,0.1,0,0.2,0,0.4c-0.7,0-1.4,0-2.1,0c-0.1,0-0.3-0.3-0.4-0.5c-0.2-1-0.6-1.3-1.5-1.4c-0.8,0-1.3,0.2-1.5,0.9
			c-0.3,1-0.1,1.6,0.6,2c0.9,0.5,1.9,0.9,2.9,1.4c1.5,0.8,2.1,2.3,1.8,4.2c-0.2,1.4-1.3,2.4-2.9,2.6c-0.2,0-0.4,0.1-0.6,0.1
			c0,0.5,0,1,0,1.6c-0.2,0-0.3,0.1-0.4,0.1c-0.9,0-0.9,0-0.9-0.9c0-0.6-0.1-0.8-0.7-1c-0.7-0.2-1.4-0.6-2-1c-0.8-0.6-1-1.4-1-2.4
			c0-0.3,0.1-0.5,0.5-0.5c0.2,0,0.5,0,0.7,0c0.8-0.1,1.3,0,1.5,1c0.2,0.9,1.5,1.2,2.5,0.9c0.8-0.3,1.2-1.1,0.9-2
			c-0.2-0.4-0.6-0.8-1-1.1c-0.8-0.5-1.7-0.8-2.5-1.2c-1.3-0.6-2-1.6-2-3.1c0-1.5,0.8-2.6,2.3-3.2c1.2-0.5,1.2-0.5,1.2-1.8
			C59.1,30.5,59.1,30.4,59.1,30.3z"/>
		<path class="st0" d="M68.8,9c-2.4-1.8-4.8-3.5-7.3-5.3c0.8-1,1.6-2.1,2.5-3C64.6,0,65.7,0,66.5,0.5c1.3,0.9,2.6,1.8,3.8,2.8
			c0.9,0.7,1.1,2,0.4,3C70.1,7.2,69.4,8,68.8,9z"/>
	</g>
	<text transform="matrix(1 0 0 1 11.6168 12.8638)" class="st0 st1 st2">CHEQUE</text>
</g>
</svg>
