<?xml version="1.0" encoding="utf-8"?>
<!-- Generator: Adobe Illustrator 24.0.2, SVG Export Plug-In . SVG Version: 6.00 Build 0)  -->
<svg version="1.1" id="Capa_1" xmlns="http://www.w3.org/2000/svg" xmlns:xlink="http://www.w3.org/1999/xlink" x="0px" y="0px"
	 viewBox="0 0 144 144" style="enable-background:new 0 0 144 144;" xml:space="preserve">
<style type="text/css">
	.st0{opacity:0.28;fill:#10C43F;enable-background:new    ;}
	.st1{fill:#60C343;}
	.st2{fill:none;}
	.st3{fill:#FBFBFB;}
</style>
<circle id="Elipse_4" class="st0" cx="72" cy="72" r="72"/>
<circle id="Elipse_3" class="st1" cx="72.5" cy="72.4" r="61.5"/>
<path id="Trazado_4" class="st2" d="M43,42.8h59.1v59.1H43V42.8z"/>
<path id="Trazado_5" class="st3" d="M52.8,57.6h44.3v-4.9H52.8c-2.7,0-4.9,2.2-4.9,4.9v27.1H43v7.4h34.5v-7.4H52.8V57.6z M99.6,62.5
	H84.8c-1.4,0-2.5,1.1-2.5,2.5v24.6c0,1.4,1.1,2.5,2.5,2.5h14.8c1.4,0,2.5-1.1,2.5-2.5V65C102,63.6,100.9,62.5,99.6,62.5z M97.1,84.7
	h-9.8V67.5h9.8V84.7z"/>
</svg>
