<svg id="Capa_1" enable-background="new 0 0 512 512" height="512" viewBox="0 0 512 512" width="512" xmlns="http://www.w3.org/2000/svg"><path d="m504.5 410.984h-16.881v-253.256c0-17.08-13.896-30.976-30.977-30.976h-34.525c-4.143 0-7.5 3.358-7.5 7.5s3.357 7.5 7.5 7.5h34.525c8.81 0 15.977 7.167 15.977 15.976v253.256h-21v-228.458c0-11.455-9.319-20.774-20.774-20.774h-51.061v-.46c0-6.646-.526-13.171-1.529-19.54h13.862c4.143 0 7.5-3.358 7.5-7.5s-3.357-7.5-7.5-7.5h-17.184c-15.028-52.257-63.263-90.599-120.289-90.599s-105.26 38.342-120.288 90.599h-78c-17.08 0-30.976 13.896-30.976 30.976v253.256h-17.88c-4.143 0-7.5 3.358-7.5 7.5v34.809c0 12.436 10.117 22.554 22.554 22.554h60.684c4.143 0 7.5-3.358 7.5-7.5s-3.357-7.5-7.5-7.5h-60.684c-4.165 0-7.554-3.389-7.554-7.554v-27.309h172.678c3.395 14.277 16.246 24.931 31.547 24.931h73.55c15.301 0 28.152-10.654 31.547-24.931h172.678v27.309c0 4.165-3.389 7.554-7.554 7.554h-376.209c-4.143 0-7.5 3.358-7.5 7.5s3.357 7.5 7.5 7.5h376.209c12.437 0 22.554-10.118 22.554-22.554v-34.809c0-4.142-3.357-7.5-7.5-7.5zm-73.655-234.232c3.184 0 5.774 2.59 5.774 5.774v228.458h-118.913-123.413-118.912v-228.458c0-3.184 2.59-5.774 5.773-5.774h48.352v39.452c0 19.578 15.928 35.505 35.506 35.505h51.173l21.849 48.844c.105.235.223.464.352.688 3.394 5.878 9.472 9.388 16.26 9.388s12.866-3.509 16.26-9.388c.129-.223.246-.453.352-.688l21.849-48.844h51.174c19.578 0 35.506-15.928 35.506-35.505v-39.452zm-176.2-125.599c60.731 0 110.14 49.408 110.14 110.139v54.912c0 11.307-9.199 20.505-20.506 20.505h-56.035c-2.957 0-5.639 1.738-6.847 4.438l-23.637 52.841c-.992 1.475-2.493 1.641-3.115 1.641s-2.123-.166-3.115-1.641l-23.637-52.841c-1.208-2.7-3.89-4.438-6.847-4.438h-56.034c-11.307 0-20.506-9.199-20.506-20.505v-54.912c0-60.731 49.408-110.139 110.139-110.139zm-214.264 106.575c0-8.809 7.167-15.976 15.976-15.976h74.678c-1.003 6.369-1.529 12.894-1.529 19.54v.46h-48.352c-11.454 0-20.773 9.319-20.773 20.774v228.458h-20zm252.393 278.187h-73.55c-6.929 0-12.926-4.063-15.734-9.931h105.019c-2.809 5.868-8.806 9.931-15.735 9.931z"/><path d="m334.304 321.4h-156.751c-17.564 0-31.854 14.29-31.854 31.854s14.29 31.854 31.854 31.854h156.751c17.564 0 31.854-14.29 31.854-31.854s-14.29-31.854-31.854-31.854zm0 48.708h-43.12v-33.708h43.12c9.293 0 16.854 7.561 16.854 16.854s-7.561 16.854-16.854 16.854zm-156.751-33.708h43.119v33.708h-43.119c-9.294 0-16.854-7.561-16.854-16.854s7.56-16.854 16.854-16.854zm58.119 33.708v-33.708h40.512v33.708z"/><path d="m254.645 215.786c36.117 0 65.5-29.383 65.5-65.5s-29.383-65.5-65.5-65.5-65.5 29.383-65.5 65.5 29.382 65.5 65.5 65.5zm0-116c27.846 0 50.5 22.654 50.5 50.5s-22.654 50.5-50.5 50.5-50.5-22.654-50.5-50.5 22.654-50.5 50.5-50.5z"/><path d="m242.301 168.76c1.35 1.665 3.347 2.673 5.487 2.77.113.005.227.008.339.008 2.021 0 3.961-.816 5.376-2.271l30.256-31.108c2.889-2.969 2.822-7.717-.146-10.605-2.972-2.889-7.72-2.821-10.605.147l-24.37 25.056-5.02-6.192c-2.607-3.217-7.33-3.713-10.549-1.104-3.218 2.608-3.712 7.331-1.104 10.549z"/></svg>