<svg xmlns="http://www.w3.org/2000/svg" width="70.751" height="55" viewBox="0 0 70.751 55">
  <path id="cc-amex" d="M70.539,59.426c-4.653-.025-5.426-.11-6.691.614v-.614c-5.561,0-6.568-.209-7.968.638v-.638h-9.6v.626c-1.4-.8-2.627-.626-9.294-.626v.688A5.862,5.862,0,0,0,34,59.426H26.883c-.43.467-1.535,1.682-1.927,2.112-1.559-1.731-1.289-1.424-1.9-2.112H12.85V70.758H22.917c.405-.43,1.584-1.706,1.977-2.136,1.559,1.756,1.265,1.436,1.891,2.136h6c0-1.8.012-1.019.012-2.824a7.954,7.954,0,0,0,4.211-.761c0,1.706-.012,2.1-.012,3.585H41.86c0-2.271.012-.908.012-3.106.761,0,.945,0,1.154.012.012.16,0,0,0,3.094,18.759,0,17.912.135,19.238-.552v.552c4.272,0,6.728.27,8.287-.749v11.1A5.894,5.894,0,0,1,64.658,87H5.717A5.894,5.894,0,0,1-.175,81.107V56.1H3.09c.516-1.24.27-.651.786-1.878H6.233c.516,1.228.27.638.786,1.878h6.494V54.7c.27.614.135.307.626,1.4h3.622c.295-.675.319-.712.626-1.4v1.4H35.022V53.018a8.763,8.763,0,0,1,1.2.025s-.025,1.338.012,3.045H44.4V54.994a5.708,5.708,0,0,0,3.646,1.093h3.29c.516-1.24.27-.651.786-1.878h2.333c.8,1.842.025.061.81,1.878h6.482V53.4c1.449,2.419.958,1.584,1.621,2.689h5.107V44.792h-4.9v2.259c-1.5-2.48-.773-1.277-1.375-2.259H56.887v2.529c-.761-1.792-.565-1.326-1.08-2.529H51.829c-.049,0-.282.025-.282-.037H48.158A5.871,5.871,0,0,0,44.389,45.9V44.756h-4.9v.651c-1.326-.749-2.541-.626-7.906-.651-.012,0-1.424-.012-1.424,0H17.515c-.307.749-.835,2.013-1.547,3.683-.344-.737-1.35-2.922-1.706-3.683H8.615v2.59c-.908-2.136-.577-1.35-1.1-2.59H2.636c-.417.97-1.682,3.929-2.836,6.617V37.893A5.894,5.894,0,0,1,5.693,32H64.621a5.894,5.894,0,0,1,5.893,5.893V59.426Zm-22.908-9.9c-.037.025-.172.27-.172.933,0,.737.11.945.135.97a.967.967,0,0,0,.417.061l.9-2.075c-.135,0-.258-.012-.381-.012C47.839,49.408,47.667,49.494,47.63,49.531ZM45.187,65.6c1.129.405,1.35,1.166,1.35,2.259l-.012,1.694H44.487l.012-1.412c0-1.449-.467-1.694-1.817-1.694H40.522l-.012,3.106H38.472l.012-8.508h4.837c1.6,0,3.327.282,3.327,2.3A2.429,2.429,0,0,1,45.187,65.6Zm-.773-1.891c0-.786-.687-.908-1.314-.908H40.522v1.915h2.541C43.751,64.718,44.414,64.558,44.414,63.711Zm22.307-.872h3.7V61.047H66.377c-1.571,0-2.922.81-2.922,2.541,0,4.051,5.242,1.571,5.242,3.364,0,.626-.528.786-1.031.786H63.737l-.012,1.817h3.929a3.217,3.217,0,0,0,2.762-1.093V65.295c-1.289-1.694-4.825-.16-4.825-1.657C65.591,62.925,66.156,62.839,66.721,62.839ZM54.542,62.8V61.047H47.765l-.012,8.508H54.53l.012-1.756L49.8,67.762V66.068h4.653V64.337H49.816V62.8Zm5.181,4.923H55.77l-.012,1.817h3.953c1.817,0,3.217-.687,3.217-2.7,0-4.076-5.267-1.375-5.267-3.229,0-.687.6-.786,1.129-.786h3.732V61.035H58.446c-1.571,0-2.885.81-2.885,2.541,0,4.051,5.242,1.535,5.242,3.364C60.791,67.6,60.226,67.725,59.723,67.725ZM50.135,48.242c-2.136-.037-4.076-.5-4.076,2.419,0,1.449.344,2.443,1.977,2.443h.908l2.885-6.691h3.045L58.3,54.442V46.413H61.4l3.573,5.905V46.413h2.075v8.471h-2.9l-3.83-6.372v6.372H56.187l-.81-1.878H51.166l-.786,1.878H48.023c-2.8,0-4.051-1.449-4.051-4.174,0-2.86,1.289-4.334,4.174-4.334h1.977v1.866ZM51.89,51.25h2.8l-1.375-3.388L51.89,51.25Zm-8.913-4.862H40.9V54.9h2.075ZM38.3,50.968c1.166.405,1.35,1.129,1.35,2.259v1.657H37.613c-.037-1.817.442-3.081-1.817-3.081h-2.21v3.081H31.572V46.376l4.8.037c1.633,0,3.364.246,3.364,2.259a2.417,2.417,0,0,1-1.436,2.3Zm-.823-1.878c0-.786-.688-.908-1.314-.908H33.586v1.878h2.541C36.827,50.059,37.477,49.9,37.477,49.089Zm-7.3-.908V46.388H23.359V54.9h6.814V53.141H25.4V51.446h4.641V49.715H25.4V48.181ZM19.787,54.9V48.242L16.84,54.9H15.048L12.1,48.242V54.9H7.952l-.786-1.878H2.931L2.145,54.9h-2.2l3.646-8.508H6.6l3.45,8.066V46.388h3.327l2.664,5.77,2.419-5.77h3.388V54.9H19.787ZM6.442,51.25,5.03,47.862,3.655,51.25ZM37.5,63.834c0,3.425-3.732,2.86-6.052,2.86l-.012,2.86H27.484l-2.5-2.824-2.615,2.824H14.336l.012-8.508h8.164l2.517,2.8,2.578-2.8h6.47C35.992,61.047,37.5,61.71,37.5,63.834ZM23.666,65.282l-2.2-2.48H16.349v1.535h4.456v1.731H16.349v1.694h4.984l2.333-2.48Zm5.746-3.327-3.106,3.364,3.106,3.45Zm5.93,1.878c0-.749-.565-1.031-1.252-1.031H31.45v2.161h2.6C34.777,64.963,35.341,64.619,35.341,63.834Z" transform="translate(0.2 -32)" fill="#fff"/>
</svg>
