<?xml version="1.0" encoding="utf-8"?>
<!-- Generator: Adobe Illustrator 24.0.2, SVG Export Plug-In . SVG Version: 6.00 Build 0)  -->
<svg version="1.1" id="Capa_1" xmlns="http://www.w3.org/2000/svg" xmlns:xlink="http://www.w3.org/1999/xlink" x="0px" y="0px"
	 viewBox="0 0 144 144" style="enable-background:new 0 0 144 144;" xml:space="preserve">
<style type="text/css">
	.st0{opacity:0.28;fill:#10C43F;enable-background:new    ;}
	.st1{fill:#60C343;}
	.st2{fill:none;}
	.st3{fill:#FBFBFB;}
</style>
<circle id="Elipse_4" class="st0" cx="72" cy="72" r="72"/>
<circle id="Elipse_3" class="st1" cx="72.5" cy="72.4" r="61.5"/>
<path id="Trazado_4" class="st2" d="M43,42.8h59.1v59.1H43V42.8z"/>
<path id="Trazado_6" class="st2" d="M37.5,37.1h69v69h-69V37.1z"/>
<path id="Trazado_8" class="st2" d="M38.3,38.2h68.3v68.3H38.3V38.2z"/>
<path id="Trazado_10" class="st2" d="M38.3,37.9h67.5v67.5H38.3V37.9z"/>
<path id="Trazado_11" class="st3" d="M72,40.7L46.7,52v16.9c0,15.6,10.8,30.2,25.3,33.8C86.5,99,97.3,84.4,97.3,68.8V52L72,40.7z
	 M66.4,85.7L55.1,74.5l4-4l7.3,7.3l18.5-18.5l4,4L66.4,85.7z"/>
</svg>
