<?xml version="1.0" encoding="utf-8"?>
<!-- Generator: Adobe Illustrator 24.0.2, SVG Export Plug-In . SVG Version: 6.00 Build 0)  -->
<svg version="1.1" id="Capa_1" xmlns="http://www.w3.org/2000/svg" xmlns:xlink="http://www.w3.org/1999/xlink" x="0px" y="0px"
	 viewBox="0 0 80 55" style="enable-background:new 0 0 80 55;" xml:space="preserve">
<style type="text/css">
	.st0{fill-rule:evenodd;clip-rule:evenodd;fill:#FFFFFF;}
	.st1{fill:#FFFFFF;}
	.st2{font-family:'OpenSans-Light';}
	.st3{font-size:13px;}
</style>
<g id="Grupo_10" transform="translate(-1202 -4789)">
	<g id="Capa_x0020_1" transform="translate(1203.091 4812.988)">
		<path id="Trazado_34" class="st0" d="M50.9,5.1c-4.4,0.6-8.5,3.7-7.8,8.8c0.6,4,5,7.3,9.8,6.6c4.3-0.6,8.4-3.9,7.6-8.8
			C59.9,7.7,55.7,4.4,50.9,5.1z M61.9,20.5h3.6c0.4-1.5,0.1-8.1,0.1-10.2c1.1,1.8,2.3,3.6,3.6,5.2l3.7,5.1l4,0V5l-3.9-0.1l0,10.4
			c-0.5-0.7-0.4-0.9-1.7-2.7l-3.8-5.2c-0.6-0.8-1.2-1.7-1.9-2.5l-3.7,0C61.7,6,61.7,19.6,61.9,20.5L61.9,20.5z M26.3,15.4
			c-0.8,0.9-1.4,2-2,3.1c4.9,4.2,12.6,2,12.1-3.5c-0.3-3.3-2.9-3.4-5.7-4.3c-1.8-0.6-1.9-2.1-0.2-2.4c1.6-0.3,2.8,0.6,3.7,1.1
			l1.4-2.9C33.4,4.4,27,4,25.4,8c-0.5,1.3-0.4,2.8,0.3,4.1c1.4,2,5.9,1.7,6.4,3.4c0.4,1.5-1.3,2.1-2.8,1.8
			C28.2,16.9,27.1,16.3,26.3,15.4L26.3,15.4z M50.9,8.6c-6.3,1.2-4.4,9.4,1.9,8.4C59,16,57.2,7.4,50.9,8.6z M6.4,15.7
			c0.1-0.1,0.2-0.2,0.3-0.3c0.1-0.1,0.1-0.2,0.2-0.3c1-1.6,5.4-9.7,5.4-10.1H0.7C0.8,5.5,3,9.5,3.5,10.3C4.4,11.8,5.8,14.1,6.4,15.7
			z M9.1,20.5l2.2-3.8c0.7-1.3,1.4-2.5,2.2-3.9c0.7-1.3,3.9-7,4.2-7.8c-1.1-0.1-2.3-0.1-3.4,0c-1,0.1-0.8,0.2-1.7,1.9l-5,9
			C6.9,17,7.3,17,7.9,18.1C8.3,18.9,8.7,19.7,9.1,20.5L9.1,20.5z M18.9,20.5l4.1,0l0-12.2l-4.1-0.1L18.9,20.5z M37.7,20.6l4,0
			l0-12.3l-4.1,0L37.7,20.6z M37.7,7.5l4,0c0.2-0.8,0.2-1.7,0-2.5l-4,0L37.7,7.5z M18.9,7.5l4.1,0L23,5L19,5L18.9,7.5z"/>
	</g>
	<text transform="matrix(1 0 0 1 1202.678 4811.9321)" class="st1 st2 st3">Transferencia</text>
</g>
</svg>
