<?xml version="1.0" encoding="utf-8"?>
<!-- Generator: Adobe Illustrator 24.0.2, SVG Export Plug-In . SVG Version: 6.00 Build 0)  -->
<svg version="1.1" id="Capa_1" xmlns="http://www.w3.org/2000/svg" xmlns:xlink="http://www.w3.org/1999/xlink" x="0px" y="0px"
	 viewBox="0 0 512 512" style="enable-background:new 0 0 512 512;" xml:space="preserve">
<style type="text/css">
	.st0{fill:#339911;}
</style>
<g>
	<path class="st0" d="M83.8,24.6c-8.1,0-14.6,6.6-14.6,14.6v34.2c0,8.1,6.6,14.6,14.6,14.6h24.3c8.1,0,14.6-6.6,14.6-14.6V39.2
		c0-8.1-6.6-14.6-14.6-14.6L83.8,24.6z M107.7,73.1H84.2V39.6h23.5V73.1z"/>
	<path class="st0" d="M122.7,339v-34.2c0-8.1-6.6-14.6-14.6-14.6H83.8c-8.1,0-14.6,6.6-14.6,14.6V339c0,8.1,6.6,14.6,14.6,14.6h24.3
		C116.1,353.6,122.7,347.1,122.7,339z M107.7,338.6H84.2v-33.4h23.5L107.7,338.6z"/>
	<path class="st0" d="M83.8,220.9h24.3c8.1,0,14.6-6.6,14.6-14.6V172c0-8.1-6.6-14.6-14.6-14.6H83.8c-8.1,0-14.6,6.6-14.6,14.6v34.2
		C69.2,214.3,75.7,220.9,83.8,220.9z M84.2,172.4h23.5v33.4H84.2L84.2,172.4z"/>
	<path class="st0" d="M482.4,440.4H251.7v-1.9c0-6.2-5.2-11.3-11.5-11.3h-10.1v-22.7c0-5.4-3.9-9.9-9-11v-15.3h78.5v7.2
		c0,12.9,10.5,23.4,23.4,23.4h134.7c12.9,0,23.4-10.5,23.4-23.4V261.6c0-10.4-6.8-19.2-16.1-22.3v-27.5c0-19.9-7.8-38.7-21.9-52.8
		c-14.1-14.1-32.8-21.9-52.8-21.9c-14.3,0-27.7,4.1-39.1,11.1c-3.7-7.6-10.9-13.3-19.5-14.9v-21.1c12.7-2.5,22.3-13.7,22.3-27v-5.6
		c0-4.2-3.4-7.5-7.5-7.5c-4.2,0-7.5,3.4-7.5,7.5v5.6c0,6.9-5.6,12.5-12.5,12.5h-268c-6.9,0-12.5-5.6-12.5-12.5V27.6
		c0-6.9,5.6-12.5,12.5-12.5h268c6.9,0,12.5,5.6,12.5,12.5v17c0,4.2,3.4,7.5,7.5,7.5c4.2,0,7.5-3.4,7.5-7.5v-17
		c0-15.2-12.4-27.6-27.6-27.6h-268C43.4,0,31.1,12.4,31.1,27.6v57.6c0,13.4,9.6,24.6,22.3,27v21.1c-12.7,2.5-22.3,13.7-22.3,27v57.6
		c0,13.4,9.6,24.6,22.3,27V266c-12.7,2.5-22.3,13.7-22.3,27v57.6c0,15.2,12.4,27.6,27.6,27.6h19.8c4.2,0,7.5-3.4,7.5-7.5
		s-3.4-7.5-7.5-7.5H58.6c-6.9,0-12.5-5.6-12.5-12.5v-57.6c0-6.9,5.6-12.5,12.5-12.5h241.1v82.7H113.5c-4.2,0-7.5,3.4-7.5,7.5
		s3.4,7.5,7.5,7.5h50.6v15.3c-5.2,1.1-9,5.6-9,11v22.7H145c-6.3,0-11.5,5-11.5,11.3v1.9h-104c-7.6,0-14.8,3-20.2,8.4
		C4,454.1,1,461.3,1,468.9c0,15.7,12.8,28.6,28.6,28.6h104v3.3c0,6.2,5.2,11.3,11.5,11.3h95.3c6.3,0,11.5-5,11.5-11.3v-3.3h230.7
		c15.7,0,28.6-12.8,28.6-28.6C511,453.2,498.2,440.4,482.4,440.4L482.4,440.4z M466.2,385.5c0,4.6-3.8,8.4-8.4,8.4H323.1
		c-4.6,0-8.4-3.8-8.4-8.4V261.6c0-4.6,3.8-8.4,8.4-8.4h134.7c4.6,0,8.4,3.8,8.4,8.4V385.5z M417.8,238.1H363v-26.3
		c0-15.1,12.3-27.4,27.4-27.4c7.3,0,14.2,2.8,19.4,8c5.2,5.2,8,12.1,8,19.4V238.1z M432.6,169.6c11.3,11.3,17.5,26.3,17.5,42.2v26.3
		h-17.2v-26.3c0-11.3-4.4-22-12.4-30c-8-8-18.7-12.4-30-12.4c-23.4,0-42.4,19-42.4,42.4v26.3h-17.2v-26.3
		c0-32.9,26.7-59.6,59.6-59.6C406.3,152.2,421.3,158.4,432.6,169.6L432.6,169.6z M68.4,132.8v-20h248.5v20H68.4z M46.1,217.9v-57.6
		c0-6.9,5.6-12.5,12.5-12.5h268c6.1,0,11.1,4.3,12.3,10.1c-14.2,13.6-23.1,32.8-23.1,54v18.6H58.6C51.7,230.5,46.1,224.8,46.1,217.9
		L46.1,217.9z M68.4,265.5v-20h237.7c-4,4.2-6.4,9.9-6.4,16.1v4H68.4z M29.6,482.4c-7.5,0-13.5-6.1-13.5-13.5c0-3.6,1.4-7,4-9.6
		c2.6-2.6,6-4,9.6-4h104v27.1H29.6z M206.2,378.2v15h-27.1v-15H206.2z M236.7,497h-88.2v-54.7h10.1c6.3,0,11.5-5,11.5-11.3v-22.7
		h45.1V431c0,6.2,5.2,11.3,11.5,11.3h10.1V497z M482.4,482.4H251.7v-27.1h230.7c7.5,0,13.5,6.1,13.5,13.5
		C496,476.4,489.9,482.4,482.4,482.4z"/>
	<path class="st0" d="M412.8,315.1c2.3-3.9,3.4-8.4,3.4-12.9c0-7.3-3.1-14.4-8.6-19.3c-5.5-4.9-12.8-7.2-20.1-6.4
		c-11.7,1.3-21.3,10.7-22.7,22.4c-0.7,5.7,0.4,11.3,3.2,16.2l-4.9,43.7c-0.4,3,0.6,6,2.6,8.3c2,2.3,4.9,3.6,7.9,3.6h33.5
		c3,0,5.9-1.3,7.9-3.6c2-2.3,3-5.3,2.6-8.3L412.8,315.1z M378.6,355.6l4.4-39.2c0.3-3-0.3-6-1.9-8.7c-1.2-2.1-1.7-4.4-1.4-6.9
		c0.6-4.9,4.6-8.8,9.5-9.3c3.1-0.3,6.1,0.6,8.5,2.7c2.3,2.1,3.6,5,3.6,8.1c0,1.9-0.5,3.8-1.5,5.4c-1.6,2.7-2.3,5.7-1.9,8.8l4.4,39.2
		L378.6,355.6z"/>
</g>
</svg>
