<svg xmlns="http://www.w3.org/2000/svg" width="70.714" height="55" viewBox="0 0 70.714 55">
  <path id="cc-visa" d="M57.713,56.468s.933,4.567,1.142,5.525h-4.1c.405-1.093,1.964-5.34,1.964-5.34-.025.037.405-1.117.651-1.829l.344,1.645Zm13-18.575V81.107A5.894,5.894,0,0,1,64.821,87H5.893A5.894,5.894,0,0,1,0,81.107V37.893A5.894,5.894,0,0,1,5.893,32H64.821A5.894,5.894,0,0,1,70.714,37.893ZM18.722,68.732l7.759-19.054H21.263L16.439,62.692l-.528-2.64-1.719-8.766a2.053,2.053,0,0,0-2.234-1.608H4.015l-.086.381a19.482,19.482,0,0,1,5.181,2.1l4.4,16.574Zm11.589.025,3.094-19.078H28.47L25.388,68.757h4.923ZM47.487,62.52c.025-2.173-1.3-3.83-4.137-5.193-1.731-.872-2.787-1.461-2.787-2.357.025-.81.9-1.645,2.836-1.645a8.46,8.46,0,0,1,3.671.724l.442.209.675-4.125a12.26,12.26,0,0,0-4.42-.81c-4.874,0-8.3,2.6-8.324,6.31-.037,2.738,2.455,4.26,4.321,5.181,1.9.933,2.554,1.547,2.554,2.369-.025,1.277-1.547,1.866-2.959,1.866a9.834,9.834,0,0,1-4.628-1.019l-.651-.307-.688,4.285a15.064,15.064,0,0,0,5.5,1.019c5.181.012,8.557-2.554,8.594-6.507Zm17.335,6.237L60.844,49.679H57.026a2.428,2.428,0,0,0-2.578,1.584L47.118,68.757H52.3s.847-2.357,1.031-2.86h6.335c.147.675.589,2.86.589,2.86Z" transform="translate(0 -32)" fill="#fff"/>
</svg>
