<?xml version="1.0" encoding="utf-8"?>
<!-- Generator: Adobe Illustrator 24.0.2, SVG Export Plug-In . SVG Version: 6.00 Build 0)  -->
<svg version="1.1" id="Capa_1" xmlns="http://www.w3.org/2000/svg" xmlns:xlink="http://www.w3.org/1999/xlink" x="0px" y="0px"
	 viewBox="0 0 80 55" style="enable-background:new 0 0 80 55;" xml:space="preserve">
<style type="text/css">
	.st0{fill-rule:evenodd;clip-rule:evenodd;fill:#FFFFFF;}
</style>
<g id="Capa_x0020_1" transform="translate(-2237.717 -10803.581)">
	<path id="Trazado_36" class="st0" d="M2292,10856.5c1.8,0.2,3.7,0.2,5.5,0.1c9.2-0.8,20.3-9.2,20.1-20.4
		c-0.1-6.9-5.1-10.8-10.3-12.9c-4.4-1.7-14.8-3.7-20-2.2l-1.1,0.2c-0.2-5.1-2.7-9.8-6.8-12.8c-4.3-2.9-9.9-3.6-16.1-2.9
		c-8.7,1-22,4.8-25,13.7c-1.8,5.4,0.3,11.5,2.3,15.8c1.1,2.1,2.3,4.1,3.8,6c0.7,0.9,1.8,1.8,2.3,2.5c0.4,0.4,0.8,0.8,1.2,1.2
		c4.2,3.2,9,6.4,16.1,5.7c4.3-0.6,8.3-2.5,11.6-5.4c0.4-0.4,0.8-0.7,1.2-1.1l0.5,1.1c0.4,0.5,1.2,2.4,2.3,4
		C2282.4,10852.8,2286.9,10856.2,2292,10856.5z M2289.5,10822.4c-12.8,1.3-12,14.5-8.4,22.2c1.7,3.8,4.7,7,8.4,9
		c6.8,3.5,14.1,0.6,19.7-3.6c0.5-0.4,0.7-0.6,1.1-1c5.1-4.5,8.6-13.6,3-19.9C2308,10823.3,2297,10821.7,2289.5,10822.4
		L2289.5,10822.4z M2271,10832.6c-1.4,1.9-3.6,3-5.9,3c-3.8,0.1-5.2-2.4-6.1-3c0.1,2.2,0.4,2.9,1.7,3.8c2.5,1.9,5.9,2,8.5,0.1
		C2270.5,10835.7,2271.2,10834.1,2271,10832.6L2271,10832.6z M2269.3,10824.1c-0.7,0.3-0.8,0.3-1.1,1.2c-0.6,2.1,0.6,4.5,2.8,3.6
		C2272.9,10828.1,2272.5,10822.8,2269.3,10824.1L2269.3,10824.1z M2269.2,10822.1c-5.2,1.2-4.2,10,1.9,8.8
		C2276.3,10829.8,2275.1,10820.8,2269.2,10822.1z M2262.6,10826.7c0.3,0.8,0.3,1.7-0.1,2.5c-2.4,1-4.4-1.6-3.3-3.8
		c1.2-2.7,5.2-0.8,5.5-0.8c0.5-3-3.3-2.9-5.4-2c-2.3,1-3.3,3.7-2.2,6c1.2,2.1,3.6,3.2,5.9,2.5c1.4-0.3,1.8-0.9,1.9-2.4
		C2264.9,10826.9,2264.6,10826.3,2262.6,10826.7L2262.6,10826.7z M2256,10829.2c-2.1-0.7-1.7,0.8-1.7-4.8c0-1.7-0.5-2-2.2-2
		c-0.1,2.3-0.1,4.5,0.1,6.8C2252.7,10831.1,2256.1,10832,2256,10829.2L2256,10829.2z M2250.4,10828.7c-1.2,0.2-2.7,0.6-3-0.7
		c-0.1-1.3-0.1-2.7,0-4c2.1,0,3,0.4,3-1.9l-3.1,0l0-1.9c-1.5-0.2-2.2,1.2-2.2,2.7c0,1.5-0.1,3.7,0,5.1c0.3,3.2,3.7,3,4.6,2.5
		C2250.4,10830.2,2250.4,10829.7,2250.4,10828.7z M2252.6,10819.3c-0.6,0.3-0.9,1-0.6,1.6c0.3,0.6,1,0.9,1.6,0.6
		c0.1,0,0.1-0.1,0.2-0.1C2255,10820.6,2254,10818.4,2252.6,10819.3L2252.6,10819.3z M2266.2,10821c0.5-0.2,0.7-0.7,1.6-1.2
		c3-1.4,4.8-0.1,6.4,1.2c0-1.5-0.2-2-1.1-2.6c-1.8-1.2-4-1.1-5.8,0C2266.5,10819.1,2266.1,10820,2266.2,10821L2266.2,10821z
		 M2293.4,10836.2c-3.2,0.9-2.2,6.2,1.5,5.1c0.6-0.1,1.2-0.6,1.4-1.2C2297.2,10838,2295.9,10835.6,2293.4,10836.2L2293.4,10836.2z
		 M2282.7,10841.4l0.8-0.1c0.2-1,0.2-2.1,0.1-3.1c0.1-0.9,0.9-1.6,1.7-1.1c0.8,0.5,0.5,2.7,0.5,4.3c1.3-0.1,0.9-0.3,1-3.8
		c0.6-0.4,0.8-0.8,1.6-0.5c0.9,0.5,0.5,2.8,0.6,4.4l0.8-0.1c0.3-1.5,0.3-3-0.1-4.4c-0.7-1.4-2.3-0.7-3.1,0c-0.9-1.4-2-0.8-3.1-0.1
		c-0.2-0.7,0-0.5-0.6-0.7c-0.9,0.4-0.3,0.8-0.3,2.2C2282.7,10839.3,2282.6,10840.4,2282.7,10841.4L2282.7,10841.4z M2307.8,10840.5
		c-1.6,0.4-2.7,0-2.9-1.6c1.1,0.1,2.2,0,3.2-0.3c0.3-3.2-3.4-3.1-4-0.6C2303.1,10841.9,2307.7,10842.2,2307.8,10840.5
		L2307.8,10840.5z M2309.2,10836.3c0.3,1.4,0.8,2.7,1.4,3.9c0.4,1.1,0.1,1.5-0.9,2.5c-0.1,0.1-0.3,0.3-0.3,0.3
		c-0.6,0.8,1,1.5,2.8-2.7c0.3-0.7,0.6-1.5,0.8-2.2c0.1-0.3,0.4-0.9,0.4-1.2c0.2-0.8,0.2-0.7-0.6-0.8c-0.5,1.2-0.9,2.4-1.3,3.7
		l-0.1-0.2c0,0-0.1-0.2-0.1-0.2c-0.3-0.6-0.8-2.7-1.3-3.3L2309.2,10836.3z M2297.9,10836.5c0.3,1.6,0.4,3.3,0.2,4.9
		c1-0.1,0.9,0.1,1-0.7c0.1-1.6-0.6-4.2,2-3.6c0.5,1,0.3,2.7,0.3,4.2l0.9,0c0.2-1.5,0.1-2.9-0.2-4.4c-0.6-1.3-2.4-0.7-3-0.1
		C2298.9,10836.4,2298.6,10835.6,2297.9,10836.5L2297.9,10836.5z M2293.7,10836.9c-2.1,0.6-1.3,4.5,0.8,3.8
		C2296.2,10840.1,2295.7,10836.3,2293.7,10836.9L2293.7,10836.9z M2305,10838.1l2.2,0.1C2307.3,10836.5,2305.4,10836,2305,10838.1
		L2305,10838.1z"/>
</g>
</svg>
