<?xml version="1.0" encoding="utf-8"?>
<!-- Generator: Adobe Illustrator 24.0.2, SVG Export Plug-In . SVG Version: 6.00 Build 0)  -->
<svg version="1.1" id="Capa_1" xmlns="http://www.w3.org/2000/svg" xmlns:xlink="http://www.w3.org/1999/xlink" x="0px" y="0px"
	 viewBox="0 0 80 55" style="enable-background:new 0 0 80 55;" xml:space="preserve">
<style type="text/css">
	.st0{fill-rule:evenodd;clip-rule:evenodd;fill:#FFFFFF;}
</style>
<g id="Capa_x0020_1" transform="translate(-1219.31 -11923.78)">
	<path id="Trazado_35" class="st0" d="M1219.3,11951.4l0,0.5c2.1,0,9.7-0.3,11.1,0.1l0,18.4h68.9v-20.2l-10.9,0l-0.1-18.1h-69
		L1219.3,11951.4L1219.3,11951.4z M1231.5,11969.2l66.8,0l0-18.1h-66.7L1231.5,11969.2L1231.5,11969.2z M1224.4,11949.1l2.4,0
		c0.6-0.2,0.1-0.3,0.6-0.4c1.6,0.8,3.5,0.7,5.1-0.2c3.4-2,2.9-9.1-2.7-9c-1.3,0-1.6,0.4-2.5,0.7l0-4l-2.9,0L1224.4,11949.1z
		 M1235.7,11957.3l0-1.6h-1.1v12.6h1.1l0-4.7c1.7,2,4.8,2.3,6.8,0.6c2-1.7,2.3-4.8,0.6-6.8s-4.8-2.3-6.8-0.6
		C1236.1,11956.9,1235.9,11957.1,1235.7,11957.3L1235.7,11957.3z M1270.5,11955.7c-6.1,1.4-4.2,11.1,2.3,9.6c2.6-0.7,4.2-3.3,3.6-6
		C1275.7,11956.7,1273.1,11955.1,1270.5,11955.7z M1271.2,11946.8l-2.1-1.1c-0.6,0.6-0.9,1.1-2.1,1c-1.1,0-1.7-0.5-1.8-1.5l6.3,0
		c0.1-3-0.8-5-3.4-5.6c-6.2-1.5-8.1,7-3.4,9.1C1267.2,11949.8,1270.7,11949,1271.2,11946.8L1271.2,11946.8z M1256.1,11947
		c-0.6-0.6-1.4-1.1-2.2-1.3c-0.4,0.7-1.2,1.1-2,1c-0.9,0.1-1.6-0.6-1.7-1.4c0,0,0,0,0,0l6.3,0c0.1-3.1-0.8-5-3.4-5.6
		c-2.4-0.7-4.9,0.6-5.7,3c-0.4,1.3-0.4,2.7,0.1,3.9c0.4,1,1.3,1.9,2.3,2.3c1.2,0.5,2.5,0.6,3.8,0.2
		C1254.7,11948.7,1255.6,11948,1256.1,11947L1256.1,11947z M1277.6,11942.6l2.3,0c0.7-0.2,0.1,0.1,0.5-0.4c0.8-0.9,1.7-0.3,1.6,0.9
		c-7.1-1.5-5.5,7.6-0.3,5.9l0.6-0.2c0.4,0,0,0.1,0.7,0.2c0.2,0,0.4,0,0.6,0c0.4,0,0.9,0,1.3,0c0-1.6,0-3.3,0-4.9
		c0-1.7-0.1-3-1.1-3.9C1282.7,11939.4,1277.8,11938.3,1277.6,11942.6L1277.6,11942.6z M1254.3,11962.4l-0.9-0.3
		c-1.3,3.4-7,3.2-7.2-1.4l8.2,0c0-2.9-1.2-4.8-3.8-5.1c-6.3-0.9-7.5,7.9-2.3,9.5C1250.8,11966,1253.4,11964.8,1254.3,11962.4z
		 M1238.7,11956.6c-4.8,0.9-3.9,8.6,1.3,7.8C1244.6,11963.7,1243.9,11955.6,1238.7,11956.6L1238.7,11956.6z M1270.8,11956.6
		c-4.9,1-3.5,9,1.7,7.7C1277.1,11963.1,1275.9,11955.6,1270.8,11956.6L1270.8,11956.6z M1286.1,11958.3c1.7,0,0.6-0.2,1.5-1.2
		c0.5-0.5,1.2-0.7,1.9-0.6c1.7,0.2,1.8,1.8,1.6,3.4c-1.9-1.6-5.4-0.6-5.3,2.4c0,1.2,0.7,2.3,1.8,2.8c1.7,0.7,2.6-0.1,3.5-0.8
		c0,0.6-0.1,0.4,0.2,0.7l0.9,0c0.1-1.3,0-3.1,0-4.5c0-1.5,0.1-2.9-0.7-4C1290.4,11954.8,1286.3,11955,1286.1,11958.3L1286.1,11958.3
		z M1257.7,11939.3l-0.3,0.3c0,0-0.1,0-0.1,0.1c-0.2,0.1-0.3,0-0.4,0.3v1.9c0.1,0.2,0.2,0.2,0.7,0.4c0,0,0.1,0,0.1,0
		c0,1.3-0.1,4.3,0.1,5.3c0.4,1.4,2.2,2.1,3.8,1.5c0.2-0.1,0.2-0.8,0.2-1.1c0-0.5,0-0.9,0-1.4l-1.1-0.1c-0.2-1.5-0.2-2.9-0.1-4.4
		l1.2,0l0-2.5l-1.2,0l0-1.5l-2.9,0L1257.7,11939.3z M1243.4,11937.4v11.6l2.9,0v-12.8l-2.9,0L1243.4,11937.4z M1239.4,11937.6
		l0,11.5l2.9,0v-12.8l-2.9,0L1239.4,11937.6z M1272.4,11949.1l2.9,0c0-1.5-0.2-5.1,0.1-6.3l1.5-0.2l0.1-3c-0.8,0-1.1,0.1-1.5,0.5
		l-0.2-0.5l-2.8,0L1272.4,11949.1z M1235.4,11949.1l2.9,0l0-9.4l-2.9,0L1235.4,11949.1z M1279,11956.5c0,0-0.1-0.5-0.1-0.5
		c-0.2-0.4,0.1-0.4-0.9-0.3v9.4l0.9,0.1c0.1-1.7,0-3.6,0-5.3c0-1.8,0.3-3.2,2.1-3.3c3.3-0.2,1.8,4.6,2.2,8.6h1
		c0.1-1.3,0.2-6.7-0.2-7.7c-0.3-1-1.1-1.7-2.2-1.8C1280.9,11955.4,1279.8,11955.8,1279,11956.5L1279,11956.5z M1260.8,11962.2l-1,0
		c-0.2,3.7,4.8,3.8,5.8,1.4c0.4-1,0.2-2.1-0.5-2.9c-1.3-1.3-4.2-0.9-3.9-3.1c0.2-1.4,2.6-1.6,3.2-0.2c0.4,1-0.1,0.8,1.2,0.8
		c-0.2-3.1-2.9-3-4.1-2.5c-1.2,0.6-1.7,2-1.2,3.2c0.2,0.5,0.6,0.8,1,1.1c1.2,0.8,4.3,0.7,3.3,3.3c-0.4,0.9-1.4,1.3-2.3,1
		C1261.2,11964.1,1261,11963.3,1260.8,11962.2L1260.8,11962.2z M1246.3,11959.8h7c0.4-3-4.1-4.3-6-2.3
		C1246.7,11958.1,1246.4,11958.9,1246.3,11959.8L1246.3,11959.8z M1228.8,11942.1c-2.7,0.7-2.1,5.3,1.2,4.6
		C1232.6,11946.1,1232,11941.3,1228.8,11942.1L1228.8,11942.1z M1288.1,11960.2c-2.7,1.1-0.9,5.2,1.9,4c1.1-0.5,1.6-1.8,1.1-2.9
		C1290.5,11960.2,1289.2,11959.7,1288.1,11960.2L1288.1,11960.2z M1255.9,11965.1l1.1,0c0.1-1.8,0-3.7,0-5.4
		c-0.1-0.8,0.1-1.6,0.4-2.3c0.5-0.7,1-0.7,1.9-0.9v-0.8c-0.9-0.2-1.7,0.1-2.3,0.8c-0.1-0.9,0.2-0.9-1.2-0.9L1255.9,11965.1z
		 M1294.4,11965.1l0.9,0.1l0-12.9l-0.9,0L1294.4,11965.1z M1236.1,11936.2c-0.8,0.3-1.2,1.2-0.9,2c0.3,0.8,1.2,1.2,2,0.9
		c0.1,0,0.2-0.1,0.2-0.1c0.8-0.4,1-1.4,0.6-2.1C1237.7,11936.3,1236.9,11936,1236.1,11936.2L1236.1,11936.2z M1250.1,11943.3l1,0
		l1.8,0l0.6,0c-0.1-0.9-1-1.6-1.9-1.4C1250.8,11942,1250.2,11942.6,1250.1,11943.3L1250.1,11943.3z M1265.3,11943.3l3.4,0
		c-0.1-0.9-1-1.6-1.9-1.5C1266,11941.9,1265.4,11942.6,1265.3,11943.3L1265.3,11943.3z M1280,11946.5c0.4,0.3,0.7,0.7,1.4,0.5
		c0.5-0.2,0.8-0.8,0.6-1.4C1281.8,11944.7,1279.8,11944.1,1280,11946.5L1280,11946.5z"/>
</g>
</svg>
