<?xml version="1.0" encoding="utf-8"?>
<!-- Generator: Adobe Illustrator 24.0.2, SVG Export Plug-In . SVG Version: 6.00 Build 0)  -->
<svg version="1.1" id="Capa_1" xmlns="http://www.w3.org/2000/svg" xmlns:xlink="http://www.w3.org/1999/xlink" x="0px" y="0px"
	 viewBox="0 0 144 144" style="enable-background:new 0 0 144 144;" xml:space="preserve">
<style type="text/css">
	.st0{opacity:0.28;fill:#10C43F;enable-background:new    ;}
	.st1{fill:#60C343;}
	.st2{fill:none;}
	.st3{fill:#FBFBFB;}
</style>
<circle id="Elipse_4" class="st0" cx="72" cy="72" r="72"/>
<circle id="Elipse_3" class="st1" cx="72.5" cy="72.4" r="61.5"/>
<path id="Trazado_4" class="st2" d="M43,42.8h59.1v59.1H43V42.8z"/>
<path id="Trazado_6" class="st2" d="M37.5,37.1h69v69h-69V37.1z"/>
<path id="Trazado_7" class="st3" d="M95,48.6H49c-3.2,0-5.7,2.6-5.7,5.8l0,34.5c0,3.2,2.6,5.7,5.8,5.8h46c3.2,0,5.7-2.6,5.8-5.8
	V54.4C100.7,51.2,98.2,48.6,95,48.6z M80.6,88.9H49V77.4h31.6V88.9z M80.6,74.5H49V63h31.6V74.5z M95,88.9H83.5V63H95V88.9z"/>
</svg>
