<?xml version="1.0" encoding="utf-8"?>
<!-- Generator: Adobe Illustrator 24.0.2, SVG Export Plug-In . SVG Version: 6.00 Build 0)  -->
<svg version="1.1" id="Capa_1" xmlns="http://www.w3.org/2000/svg" xmlns:xlink="http://www.w3.org/1999/xlink" x="0px" y="0px"
	 viewBox="0 0 511 511" style="enable-background:new 0 0 511 511;" xml:space="preserve">
<style type="text/css">
	.st0{fill:#339911;}
</style>
<path class="st0" d="M470.6,102.9c-1.2-4-5.3-6.2-9.3-5.1c-4,1.2-6.2,5.3-5.1,9.3c1.6,5.6,2.5,11.4,2.5,17.3c0,10.9-2.9,21.6-8.3,31
	c-5.3,9.1-12.9,16.8-22,22.2l-3.1,1.9c-2.3,1.4-3.7,3.8-3.7,6.4v9.5h-17.5v-30.4c8-2.9,13.8-10.6,13.8-19.6v-16.3
	c0-11.5-9.4-20.9-20.9-20.9h-0.8c-11.5,0-20.9,9.4-20.9,20.9v16.3c0,9,5.8,16.7,13.8,19.6v30.4h-17.5v-9.5c0-2.6-1.4-5.1-3.7-6.4
	l-3.1-1.9c-9.1-5.4-16.7-13.1-22-22.2c-5.4-9.4-8.3-20.1-8.3-31c0-34.1,27.8-61.9,62.1-61.9c16.2,0,31.6,6.2,43.3,17.6
	c3,2.9,7.7,2.8,10.6-0.2c2.9-3,2.8-7.7-0.2-10.6c-14.5-14.1-33.6-21.8-53.7-21.8c-42.5,0-77,34.5-77,76.8c0,13.5,3.6,26.9,10.4,38.5
	c6.5,11.1,15.7,20.5,26.7,27.2v6.4c-4,1.9-6.7,6-6.7,10.7v34.2c0,6.6,5.4,12,11.9,12H373v10.5c0,7.2,5.8,13,13,13h21.2
	c7.2,0,13-5.8,13-13v-10.5h11.1c6.6,0,12-5.4,12-12v-34.2c0-4.7-2.8-8.8-6.7-10.7v-6.4c11-6.7,20.2-16.1,26.7-27.2
	c6.8-11.6,10.4-25,10.4-38.5C473.7,117.1,472.6,109.8,470.6,102.9z M390.3,128.9c0-3.3,2.7-5.9,5.9-5.9h0.8c3.3,0,5.9,2.7,5.9,5.9
	v16.3c0,3.3-2.7,5.9-5.9,5.9h-0.8c-3.3,0-5.9-2.7-5.9-5.9V128.9z M405.3,262H388v-8.6h17.3V262z M428.3,238.4h-63.4v-28.2h63.4
	V238.4z"/>
<path class="st0" d="M396.6,38.4c4.1,0,7.5-3.4,7.5-7.5V18.5c0-4.1-3.3-7.5-7.5-7.5s-7.5,3.3-7.5,7.5v12.4
	C389.1,35,392.5,38.4,396.6,38.4z"/>
<path class="st0" d="M350.9,42.3c1.2,2.8,4,4.4,6.8,4.4c1,0,2.1-0.2,3.1-0.7c3.8-1.7,5.5-6.1,3.8-9.9l-5.1-11.3
	c-1.7-3.8-6.1-5.5-9.9-3.8c-3.8,1.7-5.5,6.1-3.8,9.9L350.9,42.3z"/>
<path class="st0" d="M311.4,60l9.3,8.3c1.4,1.3,3.2,1.9,5,1.9c2.1,0,4.1-0.8,5.6-2.5c2.8-3.1,2.5-7.8-0.6-10.6l-9.3-8.3
	c-3.1-2.8-7.8-2.5-10.6,0.6C308.1,52.5,308.4,57.3,311.4,60z"/>
<path class="st0" d="M291.9,100.5l11.8,3.8c0.8,0.2,1.5,0.4,2.3,0.4c3.2,0,6.1-2,7.1-5.2c1.3-3.9-0.9-8.2-4.8-9.4l-11.8-3.8
	c-3.9-1.3-8.2,0.9-9.4,4.8C285.8,95,287.9,99.3,291.9,100.5z"/>
<path class="st0" d="M289.7,145.5c0.3,0,0.5,0,0.8,0l12.4-1.3c4.1-0.4,7.1-4.1,6.6-8.2c-0.4-4.1-4.1-7.1-8.2-6.6l-12.4,1.3
	c-4.1,0.4-7.1,4.1-6.6,8.2C282.7,142.6,286,145.5,289.7,145.5z"/>
<path class="st0" d="M300.2,174.1c-3.6,2.1-4.8,6.7-2.7,10.2c1.4,2.4,3.9,3.7,6.5,3.7c1.3,0,2.6-0.3,3.8-1l10.7-6.3
	c3.6-2.1,4.8-6.7,2.7-10.2c-2.1-3.6-6.7-4.8-10.2-2.7L300.2,174.1z"/>
<path class="st0" d="M432.4,46.1c1,0.4,2,0.7,3.1,0.7c2.9,0,5.6-1.6,6.8-4.4l5.1-11.3c1.7-3.8,0-8.2-3.8-9.9c-3.8-1.7-8.2,0-9.9,3.8
	l-5.1,11.3C427,40,428.7,44.4,432.4,46.1z"/>
<path class="st0" d="M467.6,70.2c1.8,0,3.6-0.6,5-1.9l9.3-8.3c3.1-2.8,3.3-7.5,0.6-10.6c-2.8-3.1-7.5-3.3-10.6-0.6l-9.3,8.3
	c-3.1,2.8-3.3,7.5-0.6,10.6C463.5,69.4,465.5,70.2,467.6,70.2z"/>
<path class="st0" d="M480.1,99.5c1,3.2,4,5.2,7.1,5.2c0.8,0,1.5-0.1,2.3-0.4l11.8-3.8c3.9-1.3,6.1-5.5,4.8-9.4
	c-1.3-3.9-5.5-6.1-9.4-4.8L485,90.1C481,91.3,478.9,95.5,480.1,99.5z"/>
<path class="st0" d="M504.3,130.6l-12.4-1.3c-4.1-0.5-7.8,2.5-8.3,6.6c-0.4,4.1,2.5,7.8,6.6,8.3l12.4,1.3c0.3,0,0.5,0,0.8,0
	c3.8,0,7-2.8,7.4-6.7C511.4,134.7,508.4,131,504.3,130.6z"/>
<path class="st0" d="M493.1,174.1l-10.7-6.3c-3.6-2.1-8.2-0.9-10.2,2.7c-2.1,3.6-0.9,8.2,2.7,10.2l10.7,6.3c1.2,0.7,2.5,1,3.8,1
	c2.6,0,5.1-1.3,6.5-3.7C497.9,180.7,496.6,176.2,493.1,174.1z"/>
<path class="st0" d="M83.4,183.6h75.9c4.1,0,7.5-3.4,7.5-7.5c0-4.1-3.4-7.5-7.5-7.5H83.4c-4.1,0-7.5,3.3-7.5,7.5
	C75.9,180.2,79.3,183.6,83.4,183.6z"/>
<path class="st0" d="M48.4,371.9h145.9c4.1,0,7.5-3.3,7.5-7.5c0-4.1-3.3-7.5-7.5-7.5H48.4c-4.1,0-7.5,3.4-7.5,7.5
	C40.9,368.6,44.3,371.9,48.4,371.9z"/>
<path class="st0" d="M292.9,292.1c0-24.5-19.9-44.4-44.4-44.4c-24.5,0-44.4,19.9-44.4,44.4s19.9,44.4,44.4,44.4
	C273,336.5,292.9,316.6,292.9,292.1z M248.6,262.7c15.7,0,28.5,12.4,29.4,27.9c-1.2,0.1-2.4,0.2-3.6,0.2
	c-15.7,0-28.5-12.4-29.3-27.9C246.1,262.8,247.3,262.7,248.6,262.7z M219.2,292.1c0-9.4,4.5-17.8,11.4-23.2
	c3.6,20.9,21.8,36.9,43.7,36.9c0.1,0,0.2,0,0.3,0c-4.9,9.4-14.7,15.8-26,15.8C232.4,321.5,219.2,308.3,219.2,292.1z"/>
<path class="st0" d="M429.7,410.3l-37.9-20.7c-5-2.7-13.2-4.8-18.9-4.8H242.7V361c1.9,0.1,3.9,0.2,5.8,0.2c44.6,0,86-24,108.3-62.7
	c2.2-3.9,2.2-8.8,0-12.7c-22.2-38.7-63.7-62.7-108.3-62.7c-2,0-3.9,0.1-5.8,0.2v-93c0-6.9-5.6-12.5-12.5-12.5H92.8
	c-4.1,0-7.5,3.4-7.5,7.5c0,4.1,3.3,7.5,7.5,7.5h134.9v92.1c-5.4,0.9-10.6,2.2-15.8,3.8V222c0-6.9-5.6-12.5-12.5-12.5H43.2
	c-6.9,0-12.5,5.6-12.5,12.5v104.3c0,6.9,5.6,12.5,12.5,12.5h134.1c15,10.4,32.2,17.5,50.4,20.6v25.4h-90c-5.7,0-10.7,3.1-13.4,7.7
	H48.4c-4.1,0-7.5,3.4-7.5,7.5c0,4.1,3.4,7.5,7.5,7.5h73.7v20.5H48.4c-4.1,0-7.5,3.3-7.5,7.5c0,4.1,3.4,7.5,7.5,7.5h73.8
	c0.9,7.8,7.5,13.8,15.5,13.8h90v28.7H15V132.7h41.9c4.1,0,7.5-3.3,7.5-7.5c0-4.1-3.3-7.5-7.5-7.5H12.5c-6.9,0-12.5,5.6-12.5,12.5
	v357.8c0,6.9,5.6,12.5,12.5,12.5h217.8c6.9,0,12.5-5.6,12.5-12.5v-31.2h130.2c5.7,0,13.9-2.1,18.9-4.8l37.9-20.7
	c4.4-2.4,6.9-6.2,6.9-10.5C436.6,416.5,434.1,412.6,429.7,410.3z M169.4,441.7h-31.7c-0.4,0-0.7-0.3-0.7-0.7v-40.7
	c0-0.3,0.3-0.7,0.7-0.7h31.7V441.7z M45.7,323.8v-99.3H197v9.7c-23.4,10.7-43.5,28.5-56.7,51.5c-2.2,3.9-2.2,8.8,0,12.7
	c5.4,9.4,11.9,17.8,19.3,25.3H45.7z M154,292.1c19.7-33.4,55.8-54.1,94.6-54.1c38.8,0,74.9,20.7,94.6,54.1
	c-19.7,33.4-55.8,54.1-94.6,54.1C209.8,346.2,173.7,325.5,154,292.1z M362.1,413.3h-30.8c-4.1,0-7.5,3.4-7.5,7.5
	c0,4.1,3.3,7.5,7.5,7.5h30.8v13.5H184.4v-13.5h112c4.1,0,7.5-3.3,7.5-7.5c0-4.1-3.4-7.5-7.5-7.5h-112v-13.5h177.7V413.3z
	 M393.2,434.1l-8.5,4.6c-1.8,1-4.8,1.9-7.6,2.5v-41c2.8,0.6,5.8,1.5,7.6,2.5l8.5,4.6V434.1z M408.2,425.9v-10.4l9.5,5.2L408.2,425.9
	z"/>
</svg>
