<?xml version="1.0" encoding="UTF-8"?>
<!DOCTYPE svg PUBLIC "-//W3C//DTD SVG 1.1//EN" "http://www.w3.org/Graphics/SVG/1.1/DTD/svg11.dtd">
<!-- Creator: CorelDRAW 2018 (64 Bit) -->
<svg xmlns="http://www.w3.org/2000/svg" xml:space="preserve" width="43.1798mm" height="5.9266mm" version="1.1" style="shape-rendering:geometricPrecision; text-rendering:geometricPrecision; image-rendering:optimizeQuality; fill-rule:evenodd; clip-rule:evenodd"
viewBox="0 0 4317.98 592.66"
 xmlns:xlink="http://www.w3.org/1999/xlink">
 <defs>
  <style type="text/css">
   <![CDATA[
    .fil0 {fill:#070707;fill-rule:nonzero}
    .fil1 {fill:#60C343;fill-rule:nonzero}
   ]]>
  </style>
 </defs>
 <g id="Capa_x0020_1">
  <metadata id="CorelCorpID_0Corel-Layer"/>
  <g id="_1643630814128">
   <path class="fil0" d="M362.47 191.25c0,51.06 -17.45,90.44 -52.24,117.92 -34.9,27.48 -84.79,41.27 -149.76,41.27l-59.43 0 0 198.81 -58.72 0 0 -505.16 130.89 0c126.17,0 189.26,49.06 189.26,147.16zm-261.43 108.97l52.83 0c52,0 89.73,-8.38 112.96,-25.25 23.23,-16.74 34.9,-43.74 34.9,-80.77 0,-33.37 -10.97,-58.25 -32.78,-74.64 -21.93,-16.39 -56.01,-24.53 -102.35,-24.53l-65.56 0 0 205.19zm748.54 -256.13l0 326.99c0,57.55 -17.33,102.83 -52.11,135.84 -34.79,32.9 -82.55,49.41 -143.4,49.41 -60.84,0 -107.89,-16.63 -141.14,-49.76 -33.26,-33.26 -49.88,-78.77 -49.88,-136.91l0 -325.57 58.71 0 0 329.58c0,42.22 11.57,74.53 34.56,97.17 23,22.52 56.84,33.83 101.52,33.83 42.69,0 75.47,-11.31 98.47,-34.06 22.99,-22.65 34.55,-55.19 34.55,-97.52l0 -329 58.72 0zm528.27 505.16l-66.97 0 -276.05 -423.92 -2.83 0c3.65,49.76 5.55,95.28 5.55,136.79l0 287.13 -54.24 0 0 -505.16 66.26 0 275.46 422.27 2.71 0c-0.47,-6.25 -1.42,-26.18 -3.07,-60.02 -1.65,-33.73 -2.23,-57.78 -1.76,-72.41l0 -289.84 54.94 0 0 505.16zm294.21 0l-58.73 0 0 -452.8 -159.89 0 0 -52.36 378.41 0 0 52.36 -159.79 0 0 452.8zm660.33 -253.17c0,80.89 -20.51,144.45 -61.31,190.79 -40.91,46.35 -97.75,69.46 -170.63,69.46 -74.4,0 -131.83,-22.76 -172.15,-68.27 -40.46,-45.53 -60.74,-109.67 -60.74,-192.57 0,-82.31 20.28,-145.98 60.85,-191.26 40.56,-45.29 98.11,-67.92 172.75,-67.92 72.64,0 129.24,22.99 170.04,69.09 40.79,46.11 61.19,109.67 61.19,190.68zm-402.56 -0.11c0,68.39 14.5,120.28 43.63,155.64 29.24,35.38 71.57,53.06 126.99,53.06 56.01,0 98.34,-17.56 126.88,-52.81 28.54,-35.26 42.8,-87.27 42.8,-155.89 0,-67.92 -14.15,-119.45 -42.68,-154.59 -28.41,-35.15 -70.52,-52.71 -126.29,-52.71 -56.01,0 -98.46,17.68 -127.7,53.06 -29.13,35.37 -43.63,86.78 -43.63,154.24z"/>
   <path class="fil1" d="M3881.57 298.92c0,83.37 -22.63,147.16 -67.92,191.26 -45.28,44.1 -110.37,66.15 -195.39,66.15l-139.84 0 0 -505.17 154.69 0c78.55,0 139.63,21.82 183.14,65.34 43.51,43.51 65.32,104.35 65.32,182.42zm-725.96 -262.47c50.41,45.94 98,89.3 145.55,132.71 35.09,32.04 69.87,64.41 105.37,95.99 7.24,6.44 9.19,12.92 10.21,22.14 2.5,22.37 -5.5,37.38 -22.57,52.56 -77.13,68.61 -152.73,138.93 -228.9,208.61 -2.28,2.07 -4.79,3.86 -9.79,7.87 0.75,-31.07 -1.41,-59.51 1.44,-87.91 0.79,-7.92 5.42,-14.43 11.42,-19.77 50.24,-44.57 100.49,-89.13 150.65,-133.77 7.57,-6.73 15.89,-12.25 24.55,-16.56 -58.93,-47.48 -113.31,-100.08 -170.39,-149.58 -12.02,-10.41 -17.98,-22.21 -17.66,-38.06 0.5,-23.57 0.12,-47.18 0.12,-74.23zm-45.63 2.76c0,29.27 0.19,55.7 -0.09,82.12 -0.12,10.11 -5.08,18.29 -12.57,24.97 -51.13,45.65 -102.11,91.42 -153.43,136.86 -6.7,5.92 -14.92,10.11 -22.13,14.9 48.83,34.98 90.39,78.05 135.82,116.57 13.23,11.22 25.88,23.15 38.97,34.54 8.02,6.95 13.21,15.43 13.34,26.02 0.32,26.43 0.1,52.87 0.1,81.15 -12.81,-7.27 -21.23,-17.42 -30.72,-26.04 -74.38,-67.57 -148.43,-135.51 -222.79,-203.14 -5.23,-4.76 -6.5,-9.76 -7.42,-16.47 -3.36,-24.24 5.23,-40.96 23.96,-57.49 76.37,-67.42 151.07,-136.71 226.42,-205.3 2.63,-2.4 5.5,-4.55 10.54,-8.69zm-436.77 50.16c-55.43,0 -99.31,18.51 -131.49,55.42 -32.07,37.03 -48.11,87.62 -48.11,151.89 0,66.15 15.45,117.2 46.46,153.18 30.9,36.08 75.11,54.12 132.54,54.12 35.15,0 75.36,-6.36 120.51,-18.99l0 51.54c-35.02,13.21 -78.19,19.81 -129.59,19.81 -74.41,0 -131.83,-22.53 -172.15,-67.7 -40.46,-45.16 -60.74,-109.3 -60.74,-192.44 0,-52.12 9.79,-97.75 29.25,-136.9 19.46,-39.14 47.52,-69.34 84.31,-90.45 36.68,-21.21 79.95,-31.84 129.71,-31.84 53.06,0 99.29,9.68 138.9,28.89l-24.87 50.47c-38.2,-18.04 -76.41,-27 -114.73,-27zm1146.11 211.68c0,-65.92 -16.52,-115.46 -49.53,-148.84 -33.02,-33.35 -82.19,-50.1 -147.29,-50.1l-85.37 0 0 403.28 71.47 0c70.04,0 122.63,-17.22 157.89,-51.66 35.25,-34.42 52.83,-85.37 52.83,-152.68zm456.34 255.28l-281.47 0 0 -505.17 281.47 0 0 52.36 -222.76 0 0 162.72 209.31 0 0 51.66 -209.31 0 0 186.08 222.76 0 0 52.35z"/>
  </g>
 </g>
</svg>
