<?xml version="1.0" encoding="UTF-8"?>
<!DOCTYPE svg PUBLIC "-//W3C//DTD SVG 1.1//EN" "http://www.w3.org/Graphics/SVG/1.1/DTD/svg11.dtd">
<!-- Creator: CorelDRAW 2018 (64 Bit) -->
<svg xmlns="http://www.w3.org/2000/svg" xml:space="preserve" width="50.7998mm" height="12.0226mm" version="1.1" style="shape-rendering:geometricPrecision; text-rendering:geometricPrecision; image-rendering:optimizeQuality; fill-rule:evenodd; clip-rule:evenodd"
viewBox="0 0 5079.98 1202.26"
 xmlns:xlink="http://www.w3.org/1999/xlink">
 <defs>
  <style type="text/css">
   <![CDATA[
    .fil1 {fill:black}
    .fil0 {fill:black;fill-rule:nonzero}
   ]]>
  </style>
 </defs>
 <g id="Capa_x0020_1">
  <metadata id="CorelCorpID_0Corel-Layer"/>
  <g id="_1866239412896">
   <g>
    <path class="fil0" d="M384.17 187.57c0,61.27 -20.95,108.53 -62.69,141.5 -41.89,32.98 -101.75,49.52 -179.71,49.52l-71.32 0 0 238.58 -70.46 0 0 -606.2 157.06 0c151.41,0 227.12,58.87 227.12,176.6zm-313.72 130.76l63.4 0c62.39,0 107.67,-10.05 135.55,-30.3 27.87,-20.08 41.89,-52.49 41.89,-96.92 0,-40.04 -13.17,-69.9 -39.34,-89.58 -26.32,-19.66 -67.22,-29.43 -122.82,-29.43l-78.68 0 0 246.23zm898.25 -307.36l0 392.4c0,69.04 -20.79,123.38 -62.54,163 -41.74,39.48 -99.05,59.29 -172.07,59.29 -73.01,0 -129.46,-19.95 -169.37,-59.71 -39.91,-39.91 -59.86,-94.53 -59.86,-164.29l0 -390.69 70.46 0 0 395.5c0,50.67 13.88,89.44 41.47,116.6 27.6,27.03 68.2,40.6 121.83,40.6 51.22,0 90.56,-13.57 118.16,-40.88 27.58,-27.17 41.46,-66.22 41.46,-117.02l0 -394.8 70.46 0zm633.93 606.2l-80.37 0 -331.26 -508.7 -3.4 0c4.39,59.71 6.66,114.33 6.66,164.14l0 344.56 -65.09 0 0 -606.2 79.52 0 330.55 506.73 3.25 0c-0.57,-7.51 -1.7,-31.42 -3.68,-72.02 -1.98,-40.48 -2.68,-69.35 -2.11,-86.9l0 -347.81 65.93 0 0 606.2zm353.05 0l-70.48 0 0 -543.36 -191.87 0 0 -62.84 454.09 0 0 62.84 -191.74 0 0 543.36zm792.4 -303.81c0,97.07 -24.62,173.34 -73.58,228.95 -49.1,55.62 -117.3,83.35 -204.76,83.35 -89.28,0 -158.2,-27.31 -206.58,-81.92 -48.54,-54.64 -72.88,-131.61 -72.88,-231.08 0,-98.78 24.34,-175.18 73.01,-229.52 48.67,-54.34 117.74,-81.5 207.31,-81.5 87.17,0 155.08,27.58 204.04,82.91 48.95,55.33 73.44,131.61 73.44,228.81zm-483.08 -0.13c0,82.07 17.4,144.33 52.35,186.77 35.09,42.45 85.89,63.67 152.39,63.67 67.21,0 118.01,-21.07 152.25,-63.38 34.26,-42.31 51.37,-104.72 51.37,-187.06 0,-81.5 -16.98,-143.34 -51.22,-185.51 -34.09,-42.18 -84.62,-63.25 -151.54,-63.25 -67.21,0 -118.16,21.22 -153.25,63.67 -34.95,42.44 -52.35,104.14 -52.35,185.09z"/>
    <path class="fil0" d="M4607.09 316.77c0,100.04 -27.17,176.59 -81.51,229.52 -54.33,52.91 -132.44,79.37 -234.47,79.37l-167.8 0 0 -606.19 185.63 0c94.25,0 167.55,26.17 219.76,78.4 52.21,52.21 78.39,125.22 78.39,218.9zm-74.7 2.55c0,-79.1 -19.83,-138.54 -59.44,-178.59 -39.61,-40.04 -98.63,-60.14 -176.74,-60.14l-102.44 0 0 483.95 85.75 0c84.05,0 147.16,-20.67 189.47,-61.99 42.31,-41.32 63.4,-102.44 63.4,-183.23zm547.6 306.34l-337.76 0 0 -606.19 337.76 0 0 62.83 -267.3 0 0 195.26 251.16 0 0 61.99 -251.16 0 0 223.28 267.3 0 0 62.83z"/>
    <path class="fil0" d="M3157.04 65.32c-66.49,0 -119.15,22.21 -157.77,66.5 -38.49,44.43 -57.73,105.14 -57.73,182.26 0,79.39 18.54,140.64 55.75,183.81 37.08,43.3 90.14,64.94 159.04,64.94 42.18,0 90.43,-7.63 144.62,-22.77l0 61.84c-42.03,15.84 -93.82,23.76 -155.51,23.76 -89.28,0 -158.2,-27.03 -206.58,-81.22 -48.55,-54.19 -72.88,-131.17 -72.88,-230.93 0,-62.54 11.74,-117.3 35.08,-164.29 23.37,-46.97 57.04,-83.2 101.18,-108.53 44.02,-25.46 95.94,-38.2 155.65,-38.2 63.67,0 119.15,11.61 166.69,34.66l-29.86 60.57c-45.83,-21.65 -91.68,-32.4 -137.68,-32.4z"/>
    <path class="fil1" d="M3681.18 5.11c0,35.13 0.24,66.84 -0.12,98.56 -0.13,12.13 -6.09,21.94 -15.07,29.96 -61.35,54.78 -122.53,109.7 -184.12,164.22 -8.03,7.11 -17.9,12.13 -26.54,17.88 58.58,41.99 108.46,93.66 162.97,139.89 15.88,13.46 31.05,27.78 46.76,41.44 9.63,8.35 15.86,18.52 16,31.23 0.39,31.72 0.14,63.45 0.14,97.37 -15.38,-8.72 -25.48,-20.9 -36.86,-31.23 -89.27,-81.09 -178.13,-162.62 -267.36,-243.77 -6.28,-5.72 -7.79,-11.71 -8.91,-19.77 -4.03,-29.09 6.28,-49.15 28.75,-68.99 91.65,-80.9 181.3,-164.05 271.72,-246.35 3.15,-2.88 6.58,-5.46 12.64,-10.44z"/>
    <path class="fil1" d="M3735.94 1.8c60.49,55.14 117.6,107.17 174.66,159.27 42.1,38.44 83.85,77.28 126.43,115.18 8.7,7.73 11.03,15.5 12.26,26.56 3,26.86 -6.6,44.86 -27.09,63.09 -92.55,82.32 -183.27,166.7 -274.67,250.31 -2.73,2.49 -5.75,4.65 -11.76,9.45 0.9,-37.29 -1.68,-71.41 1.74,-105.5 0.95,-9.5 6.5,-17.32 13.71,-23.71 60.28,-53.5 120.58,-106.96 180.78,-160.54 9.08,-8.07 19.06,-14.69 29.44,-19.86 -70.72,-56.98 -135.96,-120.11 -204.45,-179.5 -14.44,-12.49 -21.58,-26.65 -21.2,-45.67 0.6,-28.29 0.15,-56.62 0.15,-89.08z"/>
   </g>
   <path class="fil0" d="M586.45 1043.24c0,13.06 -2.44,24.73 -7.23,34.99 -4.88,10.18 -11.59,18.9 -20.16,26.06 -8.56,7.08 -18.67,12.47 -30.26,16.09 -11.66,3.61 -24.14,5.39 -37.57,5.39 -9.38,0 -18.09,-0.82 -26.06,-2.37 -8.05,-1.62 -15.21,-3.61 -21.48,-5.9 -6.28,-2.29 -11.52,-4.73 -15.8,-7.16 -4.21,-2.51 -7.23,-4.58 -8.86,-6.35 -1.69,-1.7 -2.88,-3.91 -3.69,-6.57 -0.81,-2.66 -1.18,-6.2 -1.18,-10.63 0,-3.17 0.15,-5.83 0.44,-7.9 0.3,-2.06 0.74,-3.76 1.26,-5.02 0.59,-1.33 1.33,-2.21 2.21,-2.73 0.89,-0.51 1.85,-0.74 3.03,-0.74 1.99,0 4.87,1.26 8.56,3.69 3.62,2.44 8.34,5.1 14.18,7.98 5.75,2.8 12.69,5.53 20.89,8.04 8.12,2.51 17.56,3.77 28.19,3.77 8.12,0 15.51,-1.11 22.22,-3.25 6.72,-2.14 12.48,-5.17 17.28,-9.15 4.87,-3.92 8.56,-8.79 11.14,-14.55 2.59,-5.75 3.91,-12.32 3.91,-19.63 0,-7.9 -1.77,-14.69 -5.38,-20.3 -3.62,-5.61 -8.35,-10.56 -14.25,-14.84 -5.98,-4.21 -12.7,-8.12 -20.23,-11.66 -7.6,-3.54 -15.35,-7.09 -23.25,-10.78 -7.9,-3.69 -15.65,-7.75 -23.1,-12.25 -7.53,-4.43 -14.25,-9.67 -20.16,-15.72 -5.9,-6.06 -10.7,-13.14 -14.32,-21.34 -3.69,-8.12 -5.53,-17.86 -5.53,-29.23 0,-11.74 2.14,-22.14 6.35,-31.3 4.28,-9.08 10.18,-16.75 17.71,-22.95 7.61,-6.2 16.61,-10.93 27.02,-14.18 10.48,-3.24 21.7,-4.87 33.81,-4.87 6.2,0 12.4,0.52 18.67,1.63 6.28,1.1 12.18,2.5 17.72,4.35 5.53,1.77 10.48,3.84 14.84,6.05 4.28,2.22 7.16,4.06 8.48,5.39 1.41,1.4 2.29,2.44 2.74,3.25 0.44,0.81 0.73,1.85 1.03,3.03 0.29,1.25 0.52,2.73 0.66,4.5 0.15,1.7 0.23,3.91 0.23,6.72 0,2.58 -0.08,4.87 -0.3,6.94 -0.22,1.99 -0.59,3.69 -1.03,5.09 -0.37,1.33 -1.04,2.36 -1.78,3.02 -0.81,0.67 -1.69,0.96 -2.73,0.96 -1.62,0 -4.06,-1.03 -7.45,-3.02 -3.4,-2.07 -7.53,-4.28 -12.48,-6.87 -4.87,-2.51 -10.7,-4.79 -17.42,-6.86 -6.64,-2.14 -14.17,-3.18 -22.59,-3.18 -7.75,0 -14.54,1.04 -20.3,3.1 -5.75,2.15 -10.55,4.88 -14.32,8.35 -3.69,3.47 -6.49,7.52 -8.41,12.25 -1.85,4.8 -2.81,9.82 -2.81,15.13 0,7.75 1.78,14.47 5.39,20.08 3.62,5.61 8.42,10.56 14.4,14.91 6.05,4.36 12.84,8.27 20.52,11.89 7.6,3.61 15.43,7.23 23.4,10.92 7.9,3.69 15.72,7.68 23.32,12.11 7.68,4.35 14.47,9.59 20.53,15.57 5.97,5.98 10.77,12.99 14.46,21.19 3.69,8.12 5.54,17.71 5.54,28.86z"/>
   <path id="1" class="fil0" d="M816.09 1016.74c0,15.87 -2.07,30.49 -6.27,43.85 -4.14,13.28 -10.41,24.8 -18.68,34.47 -8.27,9.67 -18.67,17.2 -31.08,22.59 -12.47,5.38 -26.94,8.12 -43.33,8.12 -16.01,0 -29.97,-2.37 -41.85,-7.16 -11.89,-4.73 -21.78,-11.67 -29.67,-20.75 -7.9,-9.08 -13.81,-20.15 -17.72,-33.07 -3.91,-12.99 -5.83,-27.68 -5.83,-44.14 0,-15.87 2.06,-30.49 6.12,-43.77 4.14,-13.36 10.34,-24.88 18.61,-34.55 8.26,-9.67 18.6,-17.12 31,-22.51 12.4,-5.32 26.87,-7.97 43.4,-7.97 16.02,0 29.97,2.36 41.86,7.16 11.88,4.72 21.77,11.66 29.67,20.74 7.9,9.08 13.88,20.08 17.87,33.07 3.91,12.99 5.9,27.61 5.9,43.92zm-37.2 2.29c0,-10.56 -0.96,-20.52 -2.96,-29.9 -1.91,-9.37 -5.16,-17.57 -9.67,-24.65 -4.42,-7.09 -10.55,-12.7 -18.23,-16.76 -7.6,-4.13 -17.2,-6.2 -28.64,-6.2 -10.55,0 -19.63,1.85 -27.24,5.61 -7.6,3.76 -13.8,9.08 -18.75,15.94 -4.94,6.87 -8.56,14.99 -10.92,24.36 -2.44,9.38 -3.62,19.64 -3.62,30.71 0,10.7 0.96,20.74 2.95,30.12 1.92,9.37 5.17,17.57 9.75,24.58 4.57,6.94 10.7,12.55 18.3,16.61 7.68,4.13 17.28,6.2 28.72,6.2 10.41,0 19.41,-1.85 27.09,-5.61 7.68,-3.77 13.95,-9.01 18.9,-15.8 4.94,-6.79 8.56,-14.91 10.85,-24.28 2.29,-9.38 3.47,-19.71 3.47,-30.93z"/>
   <path id="2" class="fil0" d="M904.82 1116.39c0,1.18 -0.29,2.14 -0.88,2.95 -0.59,0.74 -1.48,1.48 -2.81,2.07 -1.33,0.52 -3.1,0.96 -5.46,1.26 -2.29,0.29 -5.24,0.44 -8.86,0.44 -3.54,0 -6.42,-0.15 -8.71,-0.44 -2.36,-0.3 -4.21,-0.74 -5.54,-1.26 -1.4,-0.59 -2.36,-1.33 -2.87,-2.07 -0.52,-0.81 -0.74,-1.77 -0.74,-2.95l0 -288.84c0,-1.18 0.22,-2.22 0.74,-3.03 0.51,-0.89 1.47,-1.62 2.87,-2.21 1.33,-0.52 3.18,-0.96 5.54,-1.26 2.29,-0.29 5.17,-0.44 8.71,-0.44 3.62,0 6.57,0.15 8.86,0.44 2.36,0.3 4.13,0.74 5.46,1.26 1.33,0.59 2.22,1.32 2.81,2.21 0.59,0.81 0.88,1.85 0.88,3.03l0 288.84z"/>
   <path id="3" class="fil0" d="M1137.13 1116.39c0,1.18 -0.22,2.14 -0.74,2.95 -0.52,0.74 -1.4,1.48 -2.73,2.07 -1.26,0.52 -2.95,0.96 -5.09,1.26 -2.07,0.29 -4.66,0.44 -7.68,0.44 -3.25,0 -5.98,-0.15 -8.05,-0.44 -2.14,-0.3 -3.76,-0.74 -5.02,-1.26 -1.18,-0.59 -2.06,-1.33 -2.43,-2.07 -0.45,-0.81 -0.67,-1.77 -0.67,-2.95l0 -25.76c-11.14,12.25 -22.07,21.11 -32.92,26.72 -10.78,5.61 -21.78,8.42 -32.85,8.42 -12.99,0 -23.91,-2.14 -32.77,-6.5 -8.86,-4.28 -16.09,-10.19 -21.56,-17.64 -5.46,-7.38 -9.37,-16.02 -11.81,-25.91 -2.36,-9.89 -3.54,-21.93 -3.54,-36.02l0 -118.04c0,-1.18 0.22,-2.14 0.74,-2.95 0.51,-0.74 1.47,-1.48 2.95,-2.14 1.4,-0.66 3.32,-1.11 5.61,-1.33 2.29,-0.22 5.17,-0.29 8.64,-0.29 3.47,0 6.34,0.07 8.63,0.29 2.29,0.22 4.14,0.67 5.54,1.33 1.33,0.66 2.29,1.4 2.88,2.14 0.59,0.81 0.88,1.77 0.88,2.95l0 113.39c0,11.36 0.82,20.52 2.51,27.38 1.63,6.87 4.14,12.7 7.53,17.5 3.4,4.87 7.75,8.63 12.92,11.29 5.17,2.66 11.22,3.99 18.16,3.99 8.93,0 17.86,-3.18 26.72,-9.53 8.93,-6.34 18.31,-15.65 28.27,-27.9l0 -136.12c0,-1.18 0.22,-2.14 0.74,-2.95 0.52,-0.74 1.48,-1.48 2.95,-2.14 1.41,-0.66 3.25,-1.11 5.47,-1.33 2.28,-0.22 5.16,-0.29 8.78,-0.29 3.47,0 6.35,0.07 8.64,0.29 2.29,0.22 4.13,0.67 5.39,1.33 1.32,0.66 2.28,1.4 2.95,2.14 0.66,0.81 0.96,1.77 0.96,2.95l0 194.73z"/>
   <path id="4" class="fil0" d="M1343.22 1086.42c0,2.44 -0.07,4.58 -0.22,6.35 -0.15,1.85 -0.37,3.32 -0.74,4.58 -0.36,1.25 -0.81,2.29 -1.32,3.24 -0.52,0.96 -1.63,2.37 -3.47,4.14 -1.78,1.84 -4.88,4.06 -9.16,6.79 -4.35,2.66 -9.22,5.09 -14.61,7.16 -5.47,2.14 -11.3,3.84 -17.64,5.09 -6.35,1.33 -12.92,2 -19.71,2 -14.03,0 -26.43,-2.29 -37.21,-6.94 -10.85,-4.58 -19.93,-11.3 -27.16,-20.15 -7.31,-8.86 -12.85,-19.79 -16.68,-32.63 -3.84,-12.92 -5.76,-27.76 -5.76,-44.66 0,-19.12 2.36,-35.58 7.01,-49.38 4.72,-13.73 11.15,-25.03 19.27,-33.81 8.19,-8.79 17.79,-15.28 28.78,-19.56 11.08,-4.21 23.04,-6.35 35.88,-6.35 6.2,0 12.18,0.59 18.01,1.77 5.91,1.11 11.22,2.66 16.17,4.5 4.87,1.92 9.3,4.06 13.06,6.57 3.84,2.44 6.65,4.58 8.34,6.28 1.78,1.77 2.96,3.17 3.62,4.13 0.59,1.03 1.18,2.22 1.62,3.62 0.37,1.33 0.67,2.88 0.82,4.65 0.14,1.7 0.22,3.91 0.22,6.49 0,5.61 -0.67,9.53 -1.92,11.81 -1.33,2.22 -2.88,3.33 -4.8,3.33 -2.14,0 -4.65,-1.18 -7.45,-3.62 -2.81,-2.36 -6.35,-5.02 -10.71,-7.9 -4.35,-2.88 -9.59,-5.54 -15.72,-7.9 -6.13,-2.43 -13.36,-3.61 -21.7,-3.61 -17.2,0 -30.42,6.57 -39.57,19.78 -9.15,13.14 -13.73,32.26 -13.73,57.28 0,12.48 1.18,23.47 3.54,32.92 2.44,9.38 5.91,17.28 10.56,23.62 4.58,6.28 10.26,11 16.98,14.1 6.72,3.1 14.39,4.65 23.03,4.65 8.27,0 15.5,-1.33 21.7,-3.91 6.2,-2.58 11.52,-5.46 16.09,-8.64 4.58,-3.1 8.42,-5.9 11.52,-8.41 3.1,-2.58 5.46,-3.84 7.23,-3.84 0.96,0 1.85,0.3 2.59,0.89 0.73,0.59 1.32,1.55 1.84,2.88 0.52,1.4 0.89,3.1 1.11,5.24 0.22,2.06 0.29,4.57 0.29,7.45z"/>
   <path id="5" class="fil0" d="M1426.41 1116.39c0,1.18 -0.29,2.14 -0.88,2.95 -0.59,0.74 -1.48,1.48 -2.81,2.07 -1.33,0.52 -3.1,0.96 -5.46,1.26 -2.29,0.29 -5.24,0.44 -8.86,0.44 -3.54,0 -6.42,-0.15 -8.71,-0.44 -2.36,-0.3 -4.21,-0.74 -5.54,-1.26 -1.4,-0.59 -2.36,-1.33 -2.87,-2.07 -0.52,-0.81 -0.74,-1.77 -0.74,-2.95l0 -194.73c0,-1.03 0.22,-1.99 0.74,-2.8 0.51,-0.89 1.47,-1.63 2.87,-2.22 1.33,-0.51 3.18,-0.96 5.54,-1.25 2.29,-0.3 5.17,-0.44 8.71,-0.44 3.62,0 6.57,0.14 8.86,0.44 2.36,0.29 4.13,0.74 5.46,1.25 1.33,0.59 2.22,1.33 2.81,2.22 0.59,0.81 0.88,1.77 0.88,2.8l0 194.73zm3.99 -260.35c0,8.42 -1.63,14.1 -4.8,17.13 -3.17,3.02 -9.01,4.57 -17.57,4.57 -8.41,0 -14.17,-1.47 -17.27,-4.43 -3.1,-2.95 -4.65,-8.56 -4.65,-16.83 0,-8.41 1.62,-14.1 4.8,-17.12 3.17,-3.03 9,-4.58 17.56,-4.58 8.42,0 14.18,1.48 17.28,4.43 3.1,2.95 4.65,8.56 4.65,16.83z"/>
   <path id="6" class="fil0" d="M1672.89 1016.74c0,15.87 -2.07,30.49 -6.27,43.85 -4.14,13.28 -10.41,24.8 -18.68,34.47 -8.27,9.67 -18.67,17.2 -31.08,22.59 -12.47,5.38 -26.94,8.12 -43.33,8.12 -16.01,0 -29.97,-2.37 -41.85,-7.16 -11.89,-4.73 -21.78,-11.67 -29.67,-20.75 -7.9,-9.08 -13.81,-20.15 -17.72,-33.07 -3.91,-12.99 -5.83,-27.68 -5.83,-44.14 0,-15.87 2.06,-30.49 6.12,-43.77 4.14,-13.36 10.34,-24.88 18.61,-34.55 8.26,-9.67 18.6,-17.12 31,-22.51 12.4,-5.32 26.87,-7.97 43.4,-7.97 16.02,0 29.97,2.36 41.86,7.16 11.88,4.72 21.77,11.66 29.67,20.74 7.9,9.08 13.88,20.08 17.87,33.07 3.91,12.99 5.9,27.61 5.9,43.92zm-37.2 2.29c0,-10.56 -0.96,-20.52 -2.96,-29.9 -1.91,-9.37 -5.16,-17.57 -9.67,-24.65 -4.42,-7.09 -10.55,-12.7 -18.23,-16.76 -7.6,-4.13 -17.2,-6.2 -28.64,-6.2 -10.55,0 -19.63,1.85 -27.24,5.61 -7.6,3.76 -13.8,9.08 -18.75,15.94 -4.94,6.87 -8.56,14.99 -10.92,24.36 -2.44,9.38 -3.62,19.64 -3.62,30.71 0,10.7 0.96,20.74 2.95,30.12 1.92,9.37 5.17,17.57 9.75,24.58 4.57,6.94 10.7,12.55 18.3,16.61 7.68,4.13 17.28,6.2 28.72,6.2 10.41,0 19.41,-1.85 27.09,-5.61 7.68,-3.77 13.95,-9.01 18.9,-15.8 4.94,-6.79 8.56,-14.91 10.85,-24.28 2.29,-9.38 3.47,-19.71 3.47,-30.93z"/>
   <path id="7" class="fil0" d="M1893.16 1116.39c0,1.18 -0.29,2.14 -0.88,2.95 -0.59,0.74 -1.48,1.48 -2.81,2.07 -1.33,0.52 -3.1,0.96 -5.46,1.26 -2.29,0.29 -5.17,0.44 -8.64,0.44 -3.69,0 -6.64,-0.15 -8.93,-0.44 -2.36,-0.3 -4.13,-0.74 -5.46,-1.26 -1.33,-0.59 -2.21,-1.33 -2.81,-2.07 -0.59,-0.81 -0.88,-1.77 -0.88,-2.95l0 -114.05c0,-11.07 -0.89,-20.07 -2.58,-26.79 -1.7,-6.79 -4.21,-12.62 -7.53,-17.57 -3.33,-4.87 -7.53,-8.64 -12.77,-11.22 -5.25,-2.58 -11.3,-3.91 -18.16,-3.91 -8.94,0 -17.79,3.17 -26.65,9.52 -8.93,6.35 -18.23,15.65 -27.98,27.9l0 136.12c0,1.18 -0.29,2.14 -0.88,2.95 -0.59,0.74 -1.48,1.48 -2.81,2.07 -1.33,0.52 -3.1,0.96 -5.46,1.26 -2.29,0.29 -5.24,0.44 -8.86,0.44 -3.54,0 -6.42,-0.15 -8.71,-0.44 -2.36,-0.3 -4.21,-0.74 -5.54,-1.26 -1.4,-0.59 -2.36,-1.33 -2.87,-2.07 -0.52,-0.81 -0.74,-1.77 -0.74,-2.95l0 -194.73c0,-1.18 0.22,-2.14 0.66,-2.95 0.44,-0.74 1.26,-1.48 2.59,-2.14 1.32,-0.66 2.95,-1.11 5.01,-1.33 2,-0.22 4.73,-0.29 8.05,-0.29 3.18,0 5.83,0.07 7.9,0.29 2.14,0.22 3.76,0.67 4.95,1.33 1.1,0.66 1.99,1.4 2.5,2.14 0.45,0.81 0.74,1.77 0.74,2.95l0 25.77c10.93,-12.33 21.78,-21.34 32.7,-27.02 10.85,-5.69 21.78,-8.56 32.85,-8.56 12.92,0 23.84,2.21 32.7,6.57 8.86,4.42 16.02,10.33 21.48,17.64 5.47,7.38 9.38,16.02 11.74,25.91 2.36,9.89 3.54,21.77 3.54,35.58l0 118.84z"/>
   <path id="8" class="fil0" d="M2124.06 1010.54c0,5.61 -1.4,9.59 -4.21,12.03 -2.8,2.36 -6.05,3.54 -9.67,3.54l-127.85 0c0,10.85 1.11,20.6 3.25,29.24 2.14,8.71 5.76,16.16 10.85,22.36 5.02,6.2 11.59,10.93 19.64,14.25 8.12,3.32 18.01,5.02 29.67,5.02 9.23,0 17.5,-0.74 24.66,-2.29 7.23,-1.48 13.51,-3.17 18.75,-5.02 5.24,-1.85 9.59,-3.54 12.99,-5.02 3.39,-1.55 5.9,-2.29 7.68,-2.29 1.03,0 1.91,0.22 2.73,0.74 0.73,0.52 1.4,1.25 1.77,2.29 0.44,0.96 0.81,2.36 1.03,4.13 0.22,1.85 0.3,3.99 0.3,6.57 0,1.85 -0.08,3.47 -0.22,4.87 -0.15,1.33 -0.3,2.59 -0.52,3.62 -0.22,1.11 -0.59,2.07 -1.11,2.95 -0.52,0.82 -1.11,1.63 -1.92,2.44 -0.81,0.81 -3.17,2.07 -7.01,3.84 -3.91,1.84 -8.93,3.54 -15.13,5.31 -6.2,1.7 -13.36,3.25 -21.48,4.58 -8.12,1.4 -16.76,2.07 -25.99,2.07 -16.01,0 -29.97,-2.22 -42,-6.72 -12.03,-4.43 -22.14,-11.07 -30.34,-19.86 -8.19,-8.86 -14.39,-19.85 -18.53,-33.14 -4.2,-13.21 -6.27,-28.64 -6.27,-46.28 0,-16.69 2.14,-31.75 6.5,-45.11 4.28,-13.28 10.55,-24.65 18.67,-33.95 8.12,-9.3 18.01,-16.39 29.53,-21.41 11.51,-4.94 24.43,-7.45 38.68,-7.45 15.28,0 28.27,2.43 38.97,7.38 10.78,4.87 19.57,11.51 26.5,19.78 6.87,8.27 11.96,18.01 15.21,29.23 3.25,11.15 4.87,23.11 4.87,35.8l0 6.5zm-35.87 -10.56c0.44,-18.75 -3.69,-33.51 -12.48,-44.21 -8.78,-10.71 -21.7,-16.02 -38.9,-16.02 -8.86,0 -16.61,1.62 -23.25,4.94 -6.64,3.33 -12.18,7.75 -16.68,13.29 -4.51,5.46 -7.98,11.89 -10.41,19.12 -2.44,7.31 -3.84,14.91 -4.14,22.88l105.86 0z"/>
   <path id="9" class="fil0" d="M2301 1063.24c0,9.97 -1.85,18.83 -5.54,26.65 -3.69,7.75 -8.86,14.32 -15.65,19.64 -6.79,5.31 -14.83,9.37 -24.21,12.1 -9.37,2.73 -19.71,4.14 -30.93,4.14 -6.94,0 -13.51,-0.52 -19.78,-1.63 -6.28,-1.03 -11.89,-2.36 -16.91,-4.06 -4.94,-1.62 -9.15,-3.32 -12.62,-5.09 -3.47,-1.77 -5.98,-3.4 -7.53,-4.8 -1.62,-1.4 -2.8,-3.47 -3.47,-6.05 -0.73,-2.59 -1.1,-6.13 -1.1,-10.63 0,-2.73 0.14,-5.02 0.44,-6.87 0.29,-1.92 0.66,-3.39 1.03,-4.57 0.45,-1.18 1.11,-2 1.85,-2.51 0.81,-0.52 1.7,-0.74 2.73,-0.74 1.55,0 3.91,0.96 7.01,2.95 3.1,1.92 6.94,4.06 11.44,6.35 4.51,2.29 9.89,4.43 16.1,6.35 6.2,1.99 13.28,2.95 21.33,2.95 6.05,0 11.51,-0.66 16.39,-1.99 4.94,-1.26 9.15,-3.18 12.77,-5.76 3.61,-2.51 6.34,-5.76 8.34,-9.67 1.92,-3.91 2.88,-8.56 2.88,-13.95 0,-5.46 -1.41,-10.11 -4.21,-13.81 -2.81,-3.76 -6.5,-7.08 -11.07,-9.96 -4.65,-2.88 -9.82,-5.46 -15.58,-7.68 -5.76,-2.21 -11.66,-4.57 -17.79,-7.01 -6.05,-2.51 -12.03,-5.24 -17.86,-8.34 -5.83,-3.1 -11,-6.87 -15.65,-11.37 -4.58,-4.5 -8.27,-9.82 -11.07,-16.02 -2.81,-6.2 -4.21,-13.58 -4.21,-22.29 0,-7.6 1.47,-14.91 4.43,-21.92 2.95,-7.02 7.38,-13.14 13.28,-18.38 5.98,-5.24 13.36,-9.53 22.22,-12.7 8.86,-3.17 19.2,-4.72 31.08,-4.72 5.17,0 10.33,0.44 15.57,1.32 5.17,0.89 9.82,2.07 14.03,3.4 4.21,1.33 7.75,2.8 10.7,4.35 2.96,1.63 5.24,2.96 6.72,4.21 1.55,1.18 2.51,2.22 3.03,3.03 0.51,0.88 0.88,1.84 1.1,2.95 0.23,1.03 0.45,2.36 0.67,3.91 0.22,1.63 0.29,3.55 0.29,5.84 0,2.43 -0.07,4.57 -0.29,6.34 -0.22,1.78 -0.59,3.25 -1.11,4.36 -0.52,1.18 -1.11,1.99 -1.84,2.51 -0.74,0.52 -1.55,0.74 -2.37,0.74 -1.32,0 -3.17,-0.82 -5.68,-2.44 -2.44,-1.55 -5.61,-3.25 -9.52,-5.09 -3.91,-1.85 -8.49,-3.55 -13.73,-5.1 -5.24,-1.62 -11.3,-2.43 -18.09,-2.43 -6.05,0 -11.44,0.66 -16.02,2.06 -4.65,1.33 -8.41,3.25 -11.36,5.76 -2.96,2.51 -5.24,5.47 -6.72,8.93 -1.55,3.4 -2.29,7.16 -2.29,11.15 0,5.61 1.48,10.34 4.36,14.17 2.88,3.84 6.57,7.16 11.22,10.04 4.57,2.88 9.89,5.47 15.79,7.83 5.91,2.29 11.89,4.65 18.01,7.08 6.13,2.51 12.18,5.24 18.16,8.27 5.98,3.03 11.3,6.72 15.87,11 4.65,4.35 8.35,9.52 11.15,15.58 2.81,6.05 4.21,13.28 4.21,21.62z"/>
   <path id="10" class="fil0" d="M2631.48 857.81c0,2.73 -0.15,5.09 -0.44,7.09 -0.3,1.99 -0.74,3.62 -1.4,4.87 -0.67,1.18 -1.41,2.14 -2.37,2.66 -0.96,0.59 -1.99,0.88 -3.1,0.88l-78.61 0 0 242.86c0,1.18 -0.3,2.14 -0.89,3.03 -0.59,0.88 -1.55,1.55 -3.02,2.06 -1.41,0.52 -3.32,0.96 -5.69,1.33 -2.43,0.37 -5.39,0.52 -9,0.52 -3.47,0 -6.42,-0.15 -8.86,-0.52 -2.44,-0.37 -4.43,-0.81 -5.83,-1.33 -1.48,-0.51 -2.44,-1.18 -3.03,-2.06 -0.59,-0.89 -0.88,-1.85 -0.88,-3.03l0 -242.86 -78.62 0c-1.11,0 -2.14,-0.29 -3.1,-0.88 -0.96,-0.52 -1.7,-1.48 -2.29,-2.66 -0.51,-1.25 -1.03,-2.88 -1.4,-4.87 -0.37,-2 -0.52,-4.36 -0.52,-7.09 0,-2.73 0.15,-5.17 0.52,-7.23 0.37,-2.07 0.89,-3.77 1.4,-5.02 0.59,-1.33 1.33,-2.29 2.29,-2.81 0.96,-0.59 1.99,-0.88 3.1,-0.88l194.43 0c1.11,0 2.14,0.29 3.1,0.88 0.96,0.52 1.7,1.48 2.37,2.81 0.66,1.25 1.1,2.95 1.4,5.02 0.29,2.06 0.44,4.5 0.44,7.23z"/>
   <path id="11" class="fil0" d="M2794.25 1010.54c0,5.61 -1.4,9.59 -4.21,12.03 -2.8,2.36 -6.05,3.54 -9.67,3.54l-127.85 0c0,10.85 1.11,20.6 3.25,29.24 2.14,8.71 5.76,16.16 10.85,22.36 5.02,6.2 11.59,10.93 19.64,14.25 8.12,3.32 18.01,5.02 29.67,5.02 9.23,0 17.5,-0.74 24.66,-2.29 7.23,-1.48 13.51,-3.17 18.75,-5.02 5.24,-1.85 9.59,-3.54 12.99,-5.02 3.39,-1.55 5.9,-2.29 7.68,-2.29 1.03,0 1.91,0.22 2.73,0.74 0.73,0.52 1.4,1.25 1.77,2.29 0.44,0.96 0.81,2.36 1.03,4.13 0.22,1.85 0.3,3.99 0.3,6.57 0,1.85 -0.08,3.47 -0.22,4.87 -0.15,1.33 -0.3,2.59 -0.52,3.62 -0.22,1.11 -0.59,2.07 -1.11,2.95 -0.52,0.82 -1.11,1.63 -1.92,2.44 -0.81,0.81 -3.17,2.07 -7.01,3.84 -3.91,1.84 -8.93,3.54 -15.13,5.31 -6.2,1.7 -13.36,3.25 -21.48,4.58 -8.12,1.4 -16.76,2.07 -25.99,2.07 -16.01,0 -29.97,-2.22 -42,-6.72 -12.03,-4.43 -22.14,-11.07 -30.34,-19.86 -8.19,-8.86 -14.39,-19.85 -18.53,-33.14 -4.2,-13.21 -6.27,-28.64 -6.27,-46.28 0,-16.69 2.14,-31.75 6.5,-45.11 4.28,-13.28 10.55,-24.65 18.67,-33.95 8.12,-9.3 18.01,-16.39 29.53,-21.41 11.51,-4.94 24.43,-7.45 38.68,-7.45 15.28,0 28.27,2.43 38.97,7.38 10.78,4.87 19.57,11.51 26.5,19.78 6.87,8.27 11.96,18.01 15.21,29.23 3.25,11.15 4.87,23.11 4.87,35.8l0 6.5zm-35.87 -10.56c0.44,-18.75 -3.69,-33.51 -12.48,-44.21 -8.78,-10.71 -21.7,-16.02 -38.9,-16.02 -8.86,0 -16.61,1.62 -23.25,4.94 -6.64,3.33 -12.18,7.75 -16.68,13.29 -4.51,5.46 -7.98,11.89 -10.41,19.12 -2.44,7.31 -3.84,14.91 -4.14,22.88l105.86 0z"/>
   <path id="12" class="fil0" d="M2988.9 1086.42c0,2.44 -0.07,4.58 -0.22,6.35 -0.15,1.85 -0.37,3.32 -0.74,4.58 -0.36,1.25 -0.81,2.29 -1.32,3.24 -0.52,0.96 -1.63,2.37 -3.47,4.14 -1.78,1.84 -4.88,4.06 -9.16,6.79 -4.35,2.66 -9.22,5.09 -14.61,7.16 -5.47,2.14 -11.3,3.84 -17.64,5.09 -6.35,1.33 -12.92,2 -19.71,2 -14.03,0 -26.43,-2.29 -37.21,-6.94 -10.85,-4.58 -19.93,-11.3 -27.16,-20.15 -7.31,-8.86 -12.85,-19.79 -16.68,-32.63 -3.84,-12.92 -5.76,-27.76 -5.76,-44.66 0,-19.12 2.36,-35.58 7.01,-49.38 4.72,-13.73 11.15,-25.03 19.27,-33.81 8.19,-8.79 17.79,-15.28 28.78,-19.56 11.08,-4.21 23.04,-6.35 35.88,-6.35 6.2,0 12.18,0.59 18.01,1.77 5.91,1.11 11.22,2.66 16.17,4.5 4.87,1.92 9.3,4.06 13.06,6.57 3.84,2.44 6.65,4.58 8.34,6.28 1.78,1.77 2.96,3.17 3.62,4.13 0.59,1.03 1.18,2.22 1.62,3.62 0.37,1.33 0.67,2.88 0.82,4.65 0.14,1.7 0.22,3.91 0.22,6.49 0,5.61 -0.67,9.53 -1.92,11.81 -1.33,2.22 -2.88,3.33 -4.8,3.33 -2.14,0 -4.65,-1.18 -7.45,-3.62 -2.81,-2.36 -6.35,-5.02 -10.71,-7.9 -4.35,-2.88 -9.59,-5.54 -15.72,-7.9 -6.13,-2.43 -13.36,-3.61 -21.7,-3.61 -17.2,0 -30.42,6.57 -39.57,19.78 -9.15,13.14 -13.73,32.26 -13.73,57.28 0,12.48 1.18,23.47 3.54,32.92 2.44,9.38 5.91,17.28 10.56,23.62 4.58,6.28 10.26,11 16.98,14.1 6.72,3.1 14.39,4.65 23.03,4.65 8.27,0 15.5,-1.33 21.7,-3.91 6.2,-2.58 11.52,-5.46 16.09,-8.64 4.58,-3.1 8.42,-5.9 11.52,-8.41 3.1,-2.58 5.46,-3.84 7.23,-3.84 0.96,0 1.85,0.3 2.59,0.89 0.73,0.59 1.32,1.55 1.84,2.88 0.52,1.4 0.89,3.1 1.11,5.24 0.22,2.06 0.29,4.57 0.29,7.45z"/>
   <path id="13" class="fil0" d="M3203.63 1116.39c0,1.18 -0.29,2.14 -0.88,2.95 -0.59,0.74 -1.48,1.48 -2.81,2.07 -1.33,0.52 -3.1,0.96 -5.46,1.26 -2.29,0.29 -5.17,0.44 -8.64,0.44 -3.69,0 -6.64,-0.15 -8.93,-0.44 -2.36,-0.3 -4.13,-0.74 -5.46,-1.26 -1.33,-0.59 -2.21,-1.33 -2.81,-2.07 -0.59,-0.81 -0.88,-1.77 -0.88,-2.95l0 -114.05c0,-11.07 -0.89,-20.07 -2.58,-26.79 -1.7,-6.79 -4.21,-12.62 -7.53,-17.57 -3.33,-4.87 -7.53,-8.64 -12.77,-11.22 -5.25,-2.58 -11.3,-3.91 -18.16,-3.91 -8.94,0 -17.79,3.17 -26.65,9.52 -8.93,6.35 -18.23,15.65 -27.98,27.9l0 136.12c0,1.18 -0.29,2.14 -0.88,2.95 -0.59,0.74 -1.48,1.48 -2.81,2.07 -1.33,0.52 -3.1,0.96 -5.46,1.26 -2.29,0.29 -5.24,0.44 -8.86,0.44 -3.54,0 -6.42,-0.15 -8.71,-0.44 -2.36,-0.3 -4.21,-0.74 -5.54,-1.26 -1.4,-0.59 -2.36,-1.33 -2.87,-2.07 -0.52,-0.81 -0.74,-1.77 -0.74,-2.95l0 -194.73c0,-1.18 0.22,-2.14 0.66,-2.95 0.44,-0.74 1.26,-1.48 2.59,-2.14 1.32,-0.66 2.95,-1.11 5.01,-1.33 2,-0.22 4.73,-0.29 8.05,-0.29 3.18,0 5.83,0.07 7.9,0.29 2.14,0.22 3.76,0.67 4.95,1.33 1.1,0.66 1.99,1.4 2.5,2.14 0.45,0.81 0.74,1.77 0.74,2.95l0 25.77c10.93,-12.33 21.78,-21.34 32.7,-27.02 10.85,-5.69 21.78,-8.56 32.85,-8.56 12.92,0 23.84,2.21 32.7,6.57 8.86,4.42 16.02,10.33 21.48,17.64 5.47,7.38 9.38,16.02 11.74,25.91 2.36,9.89 3.54,21.77 3.54,35.58l0 118.84z"/>
   <path id="14" class="fil0" d="M3449.59 1016.74c0,15.87 -2.07,30.49 -6.27,43.85 -4.14,13.28 -10.41,24.8 -18.68,34.47 -8.27,9.67 -18.67,17.2 -31.08,22.59 -12.47,5.38 -26.94,8.12 -43.33,8.12 -16.01,0 -29.97,-2.37 -41.85,-7.16 -11.89,-4.73 -21.78,-11.67 -29.67,-20.75 -7.9,-9.08 -13.81,-20.15 -17.72,-33.07 -3.91,-12.99 -5.83,-27.68 -5.83,-44.14 0,-15.87 2.06,-30.49 6.12,-43.77 4.14,-13.36 10.34,-24.88 18.61,-34.55 8.26,-9.67 18.6,-17.12 31,-22.51 12.4,-5.32 26.87,-7.97 43.4,-7.97 16.02,0 29.97,2.36 41.86,7.16 11.88,4.72 21.77,11.66 29.67,20.74 7.9,9.08 13.88,20.08 17.87,33.07 3.91,12.99 5.9,27.61 5.9,43.92zm-37.2 2.29c0,-10.56 -0.96,-20.52 -2.96,-29.9 -1.91,-9.37 -5.16,-17.57 -9.67,-24.65 -4.42,-7.09 -10.55,-12.7 -18.23,-16.76 -7.6,-4.13 -17.2,-6.2 -28.64,-6.2 -10.55,0 -19.63,1.85 -27.24,5.61 -7.6,3.76 -13.8,9.08 -18.75,15.94 -4.94,6.87 -8.56,14.99 -10.92,24.36 -2.44,9.38 -3.62,19.64 -3.62,30.71 0,10.7 0.96,20.74 2.95,30.12 1.92,9.37 5.17,17.57 9.75,24.58 4.57,6.94 10.7,12.55 18.3,16.61 7.68,4.13 17.28,6.2 28.72,6.2 10.41,0 19.41,-1.85 27.09,-5.61 7.68,-3.77 13.95,-9.01 18.9,-15.8 4.94,-6.79 8.56,-14.91 10.85,-24.28 2.29,-9.38 3.47,-19.71 3.47,-30.93z"/>
   <path id="15" class="fil0" d="M3538.32 1116.39c0,1.18 -0.29,2.14 -0.88,2.95 -0.59,0.74 -1.48,1.48 -2.81,2.07 -1.33,0.52 -3.1,0.96 -5.46,1.26 -2.29,0.29 -5.24,0.44 -8.86,0.44 -3.54,0 -6.42,-0.15 -8.71,-0.44 -2.36,-0.3 -4.21,-0.74 -5.54,-1.26 -1.4,-0.59 -2.36,-1.33 -2.87,-2.07 -0.52,-0.81 -0.74,-1.77 -0.74,-2.95l0 -288.84c0,-1.18 0.22,-2.22 0.74,-3.03 0.51,-0.89 1.47,-1.62 2.87,-2.21 1.33,-0.52 3.18,-0.96 5.54,-1.26 2.29,-0.29 5.17,-0.44 8.71,-0.44 3.62,0 6.57,0.15 8.86,0.44 2.36,0.3 4.13,0.74 5.46,1.26 1.33,0.59 2.22,1.32 2.81,2.21 0.59,0.81 0.88,1.85 0.88,3.03l0 288.84z"/>
   <path id="16" class="fil0" d="M3784.8 1016.74c0,15.87 -2.07,30.49 -6.27,43.85 -4.14,13.28 -10.41,24.8 -18.68,34.47 -8.27,9.67 -18.67,17.2 -31.08,22.59 -12.47,5.38 -26.94,8.12 -43.33,8.12 -16.01,0 -29.97,-2.37 -41.85,-7.16 -11.89,-4.73 -21.78,-11.67 -29.67,-20.75 -7.9,-9.08 -13.81,-20.15 -17.72,-33.07 -3.91,-12.99 -5.83,-27.68 -5.83,-44.14 0,-15.87 2.06,-30.49 6.12,-43.77 4.14,-13.36 10.34,-24.88 18.61,-34.55 8.26,-9.67 18.6,-17.12 31,-22.51 12.4,-5.32 26.87,-7.97 43.4,-7.97 16.02,0 29.97,2.36 41.86,7.16 11.88,4.72 21.77,11.66 29.67,20.74 7.9,9.08 13.88,20.08 17.87,33.07 3.91,12.99 5.9,27.61 5.9,43.92zm-37.2 2.29c0,-10.56 -0.96,-20.52 -2.96,-29.9 -1.91,-9.37 -5.16,-17.57 -9.67,-24.65 -4.42,-7.09 -10.55,-12.7 -18.23,-16.76 -7.6,-4.13 -17.2,-6.2 -28.64,-6.2 -10.55,0 -19.63,1.85 -27.24,5.61 -7.6,3.76 -13.8,9.08 -18.75,15.94 -4.94,6.87 -8.56,14.99 -10.92,24.36 -2.44,9.38 -3.62,19.64 -3.62,30.71 0,10.7 0.96,20.74 2.95,30.12 1.92,9.37 5.17,17.57 9.75,24.58 4.57,6.94 10.7,12.55 18.3,16.61 7.68,4.13 17.28,6.2 28.72,6.2 10.41,0 19.41,-1.85 27.09,-5.61 7.68,-3.77 13.95,-9.01 18.9,-15.8 4.94,-6.79 8.56,-14.91 10.85,-24.28 2.29,-9.38 3.47,-19.71 3.47,-30.93zm-42.15 -192.22c0.88,-1.55 1.92,-2.88 3.02,-3.84 1.19,-1.03 2.59,-1.85 4.29,-2.44 1.62,-0.51 3.69,-0.96 6.12,-1.25 2.44,-0.3 5.46,-0.44 8.93,-0.44 3.99,0 7.31,0.22 9.82,0.73 2.51,0.52 4.28,1.26 5.32,2.22 1.03,0.88 1.4,1.99 1.25,3.25 -0.15,1.18 -0.74,2.43 -1.92,3.76l-39.19 50.42c-1.19,1.47 -2.22,2.58 -3.1,3.47 -0.96,0.88 -2.07,1.55 -3.25,2.06 -1.26,0.52 -2.88,0.89 -4.8,1.11 -1.92,0.22 -4.36,0.3 -7.23,0.3 -3.18,0 -5.69,-0.22 -7.61,-0.67 -1.84,-0.44 -3.17,-1.03 -3.98,-1.69 -0.82,-0.74 -1.11,-1.7 -0.89,-2.81 0.22,-1.18 0.81,-2.58 1.85,-4.13l31.37 -50.05z"/>
   <path id="17" class="fil0" d="M4000.2 930.74c0,5.1 -0.66,8.71 -2.07,11 -1.32,2.22 -3.1,3.32 -5.31,3.32l-27.98 0c5.1,5.17 8.64,10.85 10.63,17.05 2,6.21 3.03,12.7 3.03,19.42 0,11.22 -1.77,21.18 -5.39,29.82 -3.62,8.64 -8.78,15.94 -15.5,21.92 -6.72,6.06 -14.69,10.63 -23.92,13.81 -9.22,3.17 -19.48,4.72 -30.7,4.72 -7.9,0 -15.51,-1.03 -22.59,-3.1 -7.16,-2.14 -12.7,-4.72 -16.61,-7.9 -2.44,2.59 -4.43,5.54 -6.05,8.86 -1.55,3.4 -2.37,7.24 -2.37,11.52 0,5.09 2.37,9.3 7.02,12.62 4.65,3.39 10.92,5.17 18.67,5.46l50.71 2.14c9.6,0.3 18.46,1.63 26.5,3.99 8.05,2.43 15.06,5.76 20.97,10.19 5.9,4.35 10.48,9.81 13.8,16.16 3.32,6.42 4.95,13.88 4.95,22.37 0,8.93 -1.85,17.42 -5.61,25.46 -3.77,8.05 -9.45,15.14 -17.2,21.26 -7.68,6.13 -17.57,11 -29.53,14.47 -11.96,3.54 -26.06,5.32 -42.37,5.32 -15.72,0 -29.08,-1.33 -40.08,-3.99 -11,-2.66 -20.08,-6.35 -27.17,-10.92 -7.01,-4.66 -12.18,-10.12 -15.35,-16.54 -3.17,-6.42 -4.72,-13.43 -4.72,-20.89 0,-4.8 0.59,-9.37 1.69,-13.88 1.18,-4.43 2.96,-8.71 5.32,-12.77 2.36,-3.98 5.31,-7.9 8.86,-11.51 3.54,-3.69 7.6,-7.31 12.25,-10.93 -7.01,-3.61 -12.18,-8.19 -15.58,-13.65 -3.32,-5.47 -5.02,-11.37 -5.02,-17.72 0,-8.78 1.78,-16.68 5.32,-23.62 3.54,-6.87 7.9,-13.07 13.14,-18.6 -4.43,-5.32 -7.97,-11.3 -10.56,-18.01 -2.58,-6.72 -3.91,-14.84 -3.91,-24.36 0,-11.08 1.85,-21.04 5.61,-29.83 3.77,-8.78 8.93,-16.24 15.58,-22.29 6.64,-6.05 14.61,-10.7 23.91,-13.95 9.3,-3.25 19.49,-4.87 30.42,-4.87 5.97,0 11.44,0.37 16.6,1.03 5.1,0.74 9.9,1.7 14.4,2.95l58.83 0c2.51,0 4.28,1.19 5.54,3.55 1.25,2.43 1.84,6.05 1.84,10.92zm-55.8 51.08c0,-13.21 -3.62,-23.54 -10.93,-30.93 -7.31,-7.45 -17.64,-11.14 -31,-11.14 -6.94,0 -12.99,1.18 -18.09,3.47 -5.09,2.29 -9.37,5.46 -12.77,9.45 -3.39,4.06 -5.9,8.71 -7.53,13.95 -1.69,5.24 -2.51,10.77 -2.51,16.53 0,12.77 3.62,22.81 10.93,30.19 7.31,7.31 17.49,11 30.63,11 7.02,0 13.14,-1.11 18.38,-3.32 5.17,-2.29 9.45,-5.31 12.85,-9.3 3.39,-3.99 5.9,-8.56 7.53,-13.73 1.69,-5.17 2.51,-10.56 2.51,-16.17zm17.71 154.06c0,-8.34 -3.39,-14.76 -10.26,-19.34 -6.79,-4.5 -16.09,-6.94 -27.75,-7.24l-50.27 -1.69c-4.58,3.61 -8.42,7.01 -11.37,10.26 -2.95,3.25 -5.24,6.27 -7.01,9.22 -1.7,2.96 -2.88,5.91 -3.55,8.79 -0.66,2.88 -0.96,5.83 -0.96,8.78 0,9.38 4.73,16.46 14.25,21.26 9.52,4.8 22.74,7.24 39.71,7.24 10.78,0 19.86,-1.04 27.1,-3.1 7.3,-2.14 13.13,-4.88 17.56,-8.35 4.51,-3.46 7.68,-7.38 9.67,-11.81 1.92,-4.5 2.88,-9.15 2.88,-14.02z"/>
   <path id="18" class="fil0" d="M4081.99 1116.39c0,1.18 -0.29,2.14 -0.88,2.95 -0.59,0.74 -1.48,1.48 -2.81,2.07 -1.33,0.52 -3.1,0.96 -5.46,1.26 -2.29,0.29 -5.24,0.44 -8.86,0.44 -3.54,0 -6.42,-0.15 -8.71,-0.44 -2.36,-0.3 -4.21,-0.74 -5.54,-1.26 -1.4,-0.59 -2.36,-1.33 -2.87,-2.07 -0.52,-0.81 -0.74,-1.77 -0.74,-2.95l0 -194.73c0,-1.03 0.22,-1.99 0.74,-2.8 0.51,-0.89 1.47,-1.63 2.87,-2.22 1.33,-0.51 3.18,-0.96 5.54,-1.25 2.29,-0.3 5.17,-0.44 8.71,-0.44 3.62,0 6.57,0.14 8.86,0.44 2.36,0.29 4.13,0.74 5.46,1.25 1.33,0.59 2.22,1.33 2.81,2.22 0.59,0.81 0.88,1.77 0.88,2.8l0 194.73zm3.99 -260.35c0,8.42 -1.63,14.1 -4.8,17.13 -3.17,3.02 -9.01,4.57 -17.57,4.57 -8.41,0 -14.17,-1.47 -17.27,-4.43 -3.1,-2.95 -4.65,-8.56 -4.65,-16.83 0,-8.41 1.62,-14.1 4.8,-17.12 3.17,-3.03 9,-4.58 17.56,-4.58 8.42,0 14.18,1.48 17.28,4.43 3.1,2.95 4.65,8.56 4.65,16.83z"/>
   <path id="19" class="fil0" d="M4287.72 1086.42c0,2.44 -0.07,4.58 -0.22,6.35 -0.15,1.85 -0.37,3.32 -0.74,4.58 -0.36,1.25 -0.81,2.29 -1.32,3.24 -0.52,0.96 -1.63,2.37 -3.47,4.14 -1.78,1.84 -4.88,4.06 -9.16,6.79 -4.35,2.66 -9.22,5.09 -14.61,7.16 -5.47,2.14 -11.3,3.84 -17.64,5.09 -6.35,1.33 -12.92,2 -19.71,2 -14.03,0 -26.43,-2.29 -37.21,-6.94 -10.85,-4.58 -19.93,-11.3 -27.16,-20.15 -7.31,-8.86 -12.85,-19.79 -16.68,-32.63 -3.84,-12.92 -5.76,-27.76 -5.76,-44.66 0,-19.12 2.36,-35.58 7.01,-49.38 4.72,-13.73 11.15,-25.03 19.27,-33.81 8.19,-8.79 17.79,-15.28 28.78,-19.56 11.08,-4.21 23.04,-6.35 35.88,-6.35 6.2,0 12.18,0.59 18.01,1.77 5.91,1.11 11.22,2.66 16.17,4.5 4.87,1.92 9.3,4.06 13.06,6.57 3.84,2.44 6.65,4.58 8.34,6.28 1.78,1.77 2.96,3.17 3.62,4.13 0.59,1.03 1.18,2.22 1.62,3.62 0.37,1.33 0.67,2.88 0.82,4.65 0.14,1.7 0.22,3.91 0.22,6.49 0,5.61 -0.67,9.53 -1.92,11.81 -1.33,2.22 -2.88,3.33 -4.8,3.33 -2.14,0 -4.65,-1.18 -7.45,-3.62 -2.81,-2.36 -6.35,-5.02 -10.71,-7.9 -4.35,-2.88 -9.59,-5.54 -15.72,-7.9 -6.13,-2.43 -13.36,-3.61 -21.7,-3.61 -17.2,0 -30.42,6.57 -39.57,19.78 -9.15,13.14 -13.73,32.26 -13.73,57.28 0,12.48 1.18,23.47 3.54,32.92 2.44,9.38 5.91,17.28 10.56,23.62 4.58,6.28 10.26,11 16.98,14.1 6.72,3.1 14.39,4.65 23.03,4.65 8.27,0 15.5,-1.33 21.7,-3.91 6.2,-2.58 11.52,-5.46 16.09,-8.64 4.58,-3.1 8.42,-5.9 11.52,-8.41 3.1,-2.58 5.46,-3.84 7.23,-3.84 0.96,0 1.85,0.3 2.59,0.89 0.73,0.59 1.32,1.55 1.84,2.88 0.52,1.4 0.89,3.1 1.11,5.24 0.22,2.06 0.29,4.57 0.29,7.45z"/>
   <path id="20" class="fil0" d="M4477.95 1116.61c0,1.7 -0.59,3.03 -1.7,3.92 -1.18,0.88 -2.73,1.47 -4.8,1.91 -1.99,0.45 -4.94,0.67 -8.86,0.67 -3.69,0 -6.71,-0.22 -8.93,-0.67 -2.21,-0.44 -3.84,-1.03 -4.87,-1.91 -1.03,-0.89 -1.55,-2.15 -1.55,-3.92l0 -19.48c-8.49,9.07 -17.94,16.16 -28.42,21.18 -10.48,4.95 -21.55,7.46 -33.22,7.46 -10.26,0 -19.56,-1.33 -27.83,-3.99 -8.26,-2.66 -15.35,-6.57 -21.18,-11.59 -5.83,-5.02 -10.41,-11.29 -13.66,-18.6 -3.25,-7.38 -4.87,-15.72 -4.87,-25.1 0,-11 2.21,-20.52 6.72,-28.57 4.43,-8.12 10.85,-14.83 19.26,-20.15 8.35,-5.31 18.61,-9.37 30.71,-12.03 12.11,-2.66 25.76,-3.99 40.9,-3.99l26.87 0 0 -15.2c0,-7.46 -0.82,-14.1 -2.37,-19.93 -1.62,-5.76 -4.13,-10.56 -7.67,-14.4 -3.55,-3.84 -8.12,-6.71 -13.73,-8.63 -5.61,-2 -12.55,-2.96 -20.75,-2.96 -8.78,0 -16.68,1.04 -23.62,3.18 -7.01,2.14 -13.14,4.43 -18.38,7.01 -5.24,2.58 -9.67,4.87 -13.21,7.01 -3.47,2.14 -6.13,3.18 -7.83,3.18 -1.18,0 -2.21,-0.3 -3.02,-0.89 -0.89,-0.52 -1.63,-1.4 -2.29,-2.58 -0.66,-1.11 -1.11,-2.59 -1.4,-4.36 -0.3,-1.84 -0.45,-3.76 -0.45,-5.98 0,-3.54 0.23,-6.42 0.74,-8.49 0.52,-2.06 1.77,-4.06 3.69,-5.9 1.92,-1.85 5.32,-4.06 10.04,-6.64 4.73,-2.51 10.26,-4.88 16.46,-7.02 6.13,-2.06 12.92,-3.84 20.3,-5.24 7.31,-1.4 14.77,-2.06 22.22,-2.06 13.95,0 25.84,1.55 35.66,4.72 9.81,3.17 17.71,7.9 23.76,14.02 6.06,6.13 10.41,13.73 13.14,22.81 2.73,9.08 4.14,19.71 4.14,31.82l0 131.39zm-35.43 -89.17l-30.49 0c-9.74,0 -18.23,0.81 -25.47,2.51 -7.16,1.63 -13.14,4.14 -17.94,7.38 -4.72,3.25 -8.19,7.09 -10.48,11.67 -2.21,4.57 -3.32,9.81 -3.32,15.72 0,10.11 3.18,18.16 9.6,24.14 6.42,5.98 15.35,9 26.94,9 9.3,0 18.01,-2.36 25.98,-7.16 7.98,-4.72 16.39,-12.03 25.18,-21.85l0 -41.41z"/>
   <path id="21" class="fil0" d="M4665.74 1063.24c0,9.97 -1.85,18.83 -5.54,26.65 -3.69,7.75 -8.86,14.32 -15.65,19.64 -6.79,5.31 -14.83,9.37 -24.21,12.1 -9.37,2.73 -19.71,4.14 -30.93,4.14 -6.94,0 -13.51,-0.52 -19.78,-1.63 -6.28,-1.03 -11.89,-2.36 -16.91,-4.06 -4.94,-1.62 -9.15,-3.32 -12.62,-5.09 -3.47,-1.77 -5.98,-3.4 -7.53,-4.8 -1.62,-1.4 -2.8,-3.47 -3.47,-6.05 -0.73,-2.59 -1.1,-6.13 -1.1,-10.63 0,-2.73 0.14,-5.02 0.44,-6.87 0.29,-1.92 0.66,-3.39 1.03,-4.57 0.45,-1.18 1.11,-2 1.85,-2.51 0.81,-0.52 1.7,-0.74 2.73,-0.74 1.55,0 3.91,0.96 7.01,2.95 3.1,1.92 6.94,4.06 11.44,6.35 4.51,2.29 9.89,4.43 16.1,6.35 6.2,1.99 13.28,2.95 21.33,2.95 6.05,0 11.51,-0.66 16.39,-1.99 4.94,-1.26 9.15,-3.18 12.77,-5.76 3.61,-2.51 6.34,-5.76 8.34,-9.67 1.92,-3.91 2.88,-8.56 2.88,-13.95 0,-5.46 -1.41,-10.11 -4.21,-13.81 -2.81,-3.76 -6.5,-7.08 -11.07,-9.96 -4.65,-2.88 -9.82,-5.46 -15.58,-7.68 -5.76,-2.21 -11.66,-4.57 -17.79,-7.01 -6.05,-2.51 -12.03,-5.24 -17.86,-8.34 -5.83,-3.1 -11,-6.87 -15.65,-11.37 -4.58,-4.5 -8.27,-9.82 -11.07,-16.02 -2.81,-6.2 -4.21,-13.58 -4.21,-22.29 0,-7.6 1.47,-14.91 4.43,-21.92 2.95,-7.02 7.38,-13.14 13.28,-18.38 5.98,-5.24 13.36,-9.53 22.22,-12.7 8.86,-3.17 19.2,-4.72 31.08,-4.72 5.17,0 10.33,0.44 15.57,1.32 5.17,0.89 9.82,2.07 14.03,3.4 4.21,1.33 7.75,2.8 10.7,4.35 2.96,1.63 5.24,2.96 6.72,4.21 1.55,1.18 2.51,2.22 3.03,3.03 0.51,0.88 0.88,1.84 1.1,2.95 0.23,1.03 0.45,2.36 0.67,3.91 0.22,1.63 0.29,3.55 0.29,5.84 0,2.43 -0.07,4.57 -0.29,6.34 -0.22,1.78 -0.59,3.25 -1.11,4.36 -0.52,1.18 -1.11,1.99 -1.84,2.51 -0.74,0.52 -1.55,0.74 -2.37,0.74 -1.32,0 -3.17,-0.82 -5.68,-2.44 -2.44,-1.55 -5.61,-3.25 -9.52,-5.09 -3.91,-1.85 -8.49,-3.55 -13.73,-5.1 -5.24,-1.62 -11.3,-2.43 -18.09,-2.43 -6.05,0 -11.44,0.66 -16.02,2.06 -4.65,1.33 -8.41,3.25 -11.36,5.76 -2.96,2.51 -5.24,5.47 -6.72,8.93 -1.55,3.4 -2.29,7.16 -2.29,11.15 0,5.61 1.48,10.34 4.36,14.17 2.88,3.84 6.57,7.16 11.22,10.04 4.57,2.88 9.89,5.47 15.79,7.83 5.91,2.29 11.89,4.65 18.01,7.08 6.13,2.51 12.18,5.24 18.16,8.27 5.98,3.03 11.3,6.72 15.87,11 4.65,4.35 8.35,9.52 11.15,15.58 2.81,6.05 4.21,13.28 4.21,21.62z"/>
  </g>
 </g>
</svg>
