<?xml version="1.0" encoding="utf-8"?>
<!-- Generator: Adobe Illustrator 24.0.2, SVG Export Plug-In . SVG Version: 6.00 Build 0)  -->
<svg version="1.1" id="Layer_5" xmlns="http://www.w3.org/2000/svg" xmlns:xlink="http://www.w3.org/1999/xlink" x="0px" y="0px"
	 viewBox="0 0 512 512" style="enable-background:new 0 0 512 512;" xml:space="preserve">
<style type="text/css">
	.st0{fill:#60C343;}
</style>
<g>
	<path class="st0" d="M280,440h200c4.4,0,8-3.6,8-8V168H280V440z M336,416h-32v-32h32V416z M400,416h-32v-32h32V416z M464,416h-32
		v-32h32V416z M472,360h-16v-16h16V360z M472,328H328v-16h144V328z M440,184h32v16h-32V184z M408,184h16v16h-16V184z M408,216h64v16
		h-64V216z M408,248h64v16h-64V248z M408,280h64v16h-64V280z M304,192h80v96h-80V192z M296,312h16v16h-16V312z M296,344h144v16H296
		V344z"/>
	<path class="st0" d="M24,432c0,4.4,3.6,8,8,8h232V168H24V432z M48,192h192v96H48V192z M48,320h192v96H48V320z"/>
	<path class="st0" d="M480,72H32c-4.4,0-8,3.6-8,8v72h464V80C488,75.6,484.4,72,480,72z M80,128H48V96h32V128z M144,128h-32V96h32
		V128z M208,128h-32V96h32V128z"/>
</g>
</svg>
